<svg width="48" height="53" viewBox="0 0 48 53" fill="none" xmlns="http://www.w3.org/2000/svg">
<path fill-rule="evenodd" clip-rule="evenodd" d="M33.551 0.00010399C33.84 0.197225 34.1668 0.352217 34.2687 0.737167C34.4507 1.42456 34.0104 2.01169 33.2286 2.06281C32.2625 2.1259 31.3225 2.27748 30.4272 2.66997C28.6973 3.4283 27.465 4.67578 26.6758 6.38616C26.5188 6.72671 26.7464 6.75004 26.9409 6.84009C28.7208 7.66316 29.9929 8.97558 30.7116 10.8031C31.3592 12.4494 31.4071 14.1314 30.8017 15.7878C30.6023 16.3335 30.7516 16.4451 31.2174 16.6207C36.547 18.6301 41.0931 21.778 44.7694 26.1341C46.2689 27.9111 47.3667 29.9213 47.8368 32.2363C48.5902 35.9461 46.6814 39.4057 43.2164 40.5018C41.1475 41.1564 39.1435 40.7814 37.1886 39.9742C35.8636 39.427 34.6655 38.6648 33.4821 37.7593C33.1519 38.9713 32.8351 40.1381 32.4132 41.2697C31.4201 43.9346 30.2828 46.5234 28.297 48.6323C27.4746 49.5059 26.533 50.2193 25.3631 50.5643C25.0891 50.645 25.0157 50.7757 25.0233 51.0377C25.0327 51.363 25.0286 51.6932 24.9828 52.0145C24.914 52.4982 24.4954 52.8436 24.0192 52.8566C23.5515 52.8692 23.1214 52.5282 23.0141 52.0586C22.9988 51.9915 22.9678 51.9188 22.9803 51.8562C23.1648 50.9285 22.6812 50.5892 21.8703 50.235C20.0361 49.4335 18.8696 47.8662 17.8687 46.1994C16.3924 43.741 15.4028 41.0774 14.6672 38.3144C14.6231 38.1487 14.5773 37.9835 14.5182 37.7665C13.6438 38.411 12.7742 39.0186 11.8262 39.5004C10.1494 40.3524 8.40116 40.9084 6.49004 40.8064C2.81072 40.6102 -0.0204374 37.6087 0.000111144 33.921C0.0121925 31.7559 0.757516 29.8174 1.88882 28.0178C3.9413 24.7531 6.77514 22.2711 9.93755 20.1382C12.1636 18.6368 14.5075 17.3537 17.0686 16.5053C17.3484 16.4126 17.3671 16.3014 17.2677 16.0257C15.9311 12.3213 17.4753 8.54923 21.0191 6.86962C21.3653 6.70554 21.4201 6.57925 21.247 6.23509C19.9326 3.62171 17.8051 2.26571 14.9067 2.07416C14.0032 2.01448 13.5284 1.46132 13.7291 0.723949C13.8233 0.378238 14.1381 0.238013 14.3474 0.00010399C14.8292 0.00010399 15.3111 0.00010399 15.7929 0.00010399C15.8089 0.083434 15.8701 0.0920041 15.9414 0.10264C19.4395 0.627092 21.8864 2.53656 23.2782 5.76712C23.4816 6.23933 23.7553 6.16271 24.0994 6.20731C24.483 6.25709 24.5772 6.05439 24.7027 5.76092C25.949 2.84871 28.1306 1.02299 31.1893 0.232126C31.4943 0.153237 31.8296 0.19392 32.1057 0C32.5874 0.000103259 33.0691 0.00010399 33.551 0.00010399ZM41.1318 38.7618C41.3486 38.7388 41.7312 38.733 42.0977 38.6533C44.9001 38.0432 46.4525 35.4331 45.7899 32.5074C45.3504 30.5677 44.4071 28.8827 43.1378 27.3935C39.6574 23.3099 35.3589 20.3717 30.345 18.4877C29.2697 18.0837 28.1449 17.8041 26.9709 17.8729C25.739 17.9451 25.1546 18.5052 25.0622 19.7222C24.9638 21.0185 25.3025 22.2438 25.7315 23.4431C26.6874 26.115 28.1206 28.5325 29.7849 30.8134C31.4957 33.1585 33.4355 35.2917 35.8555 36.9338C37.3972 37.98 39.0654 38.7103 41.1318 38.7618ZM7.02255 38.7531C8.10646 38.7503 9.4384 38.3999 10.5807 37.835C12.7762 36.7494 14.5553 35.1428 16.1613 33.3339C18.7701 30.3958 20.8889 27.1457 22.2611 23.4449C22.7223 22.2014 23.0506 20.9203 22.925 19.5695C22.8387 18.6438 22.3911 18.1314 21.4821 17.9483C20.2198 17.6942 19.0105 18.0072 17.8473 18.4205C13.0814 20.1136 9.00285 22.8719 5.57383 26.574C4.00863 28.2638 2.78397 30.1662 2.22101 32.4568C1.39772 35.8067 3.62554 38.7617 7.02255 38.7531ZM18.8375 13.4564C18.8534 14.1906 19.0069 14.8859 19.2994 15.5572C19.4132 15.8183 19.5348 15.9068 19.8349 15.8679C21.295 15.6786 22.6818 15.8305 23.8349 16.8736C23.962 16.9885 24.037 16.9878 24.1641 16.872C25.2995 15.8381 26.6719 15.6825 28.113 15.8618C28.4592 15.905 28.587 15.7997 28.7177 15.5053C29.6533 13.4002 29.0743 10.9187 27.2148 9.42817C25.6032 8.1364 23.7808 7.87381 21.9046 8.73004C19.915 9.6381 18.9285 11.2797 18.8375 13.4564ZM16.5256 37.1796C16.889 38.6812 17.3495 40.0962 17.8624 41.4968C17.9821 41.8236 18.1287 41.9292 18.4821 41.9275C21.8875 41.9113 25.2929 41.9177 28.6984 41.9177C29.9655 41.9177 29.957 41.9146 30.4104 40.7094C30.8421 39.5618 31.1588 38.383 31.471 37.1796C26.4682 37.1796 21.5163 37.1796 16.5256 37.1796ZM17.4044 35.0772C21.8255 35.0772 26.1757 35.0772 30.6226 35.0772C29.4389 33.7944 28.4321 32.4753 27.472 31.1204C27.3291 30.9186 27.1389 30.977 26.9601 30.9766C25.2921 30.9725 23.6203 31.0403 21.9572 30.9492C20.9721 30.8952 20.3381 31.172 19.8331 32.0287C19.1824 33.1325 18.2556 34.0417 17.4044 35.0772ZM19.043 43.9976C19.6278 45.3631 20.8918 47.0436 21.9666 47.8985C23.2587 48.9262 24.4626 49.0066 25.7894 48.0674C27.24 47.0403 28.1465 45.5686 28.9939 43.9976C25.648 43.9976 22.3667 43.9976 19.043 43.9976ZM26.0512 28.8943C25.2954 27.5442 24.5914 26.2048 23.9975 24.6828C23.4098 26.1972 22.7034 27.5328 21.9452 28.8943C23.3371 28.8943 24.6541 28.8943 26.0512 28.8943Z" fill="#2179A1"/>
<path fill-rule="evenodd" clip-rule="evenodd" d="M30.1227 20.6395C30.2881 20.694 30.5036 20.7503 30.7074 20.8348C33.8285 22.1265 36.6042 23.9637 39.1328 26.1874C39.6751 26.6645 39.7535 27.265 39.3643 27.7261C38.9617 28.2032 38.3335 28.2239 37.7713 27.7296C35.685 25.8955 33.4028 24.3598 30.8958 23.161C30.4332 22.9397 29.947 22.7608 29.5056 22.504C29.0879 22.261 28.9793 21.8414 29.112 21.3843C29.2481 20.9164 29.606 20.7106 30.1227 20.6395Z" fill="#2179A1"/>
<path fill-rule="evenodd" clip-rule="evenodd" d="M42.565 29.9247C42.5732 30.481 42.1321 30.9487 41.5807 30.9684C41.0183 30.9885 40.5302 30.5051 40.5352 29.9325C40.5399 29.3808 41.0022 28.915 41.5473 28.9128C42.0952 28.9105 42.5568 29.3696 42.565 29.9247Z" fill="#2179A1"/>
<path fill-rule="evenodd" clip-rule="evenodd" d="M17.8747 20.6532C18.3056 20.6952 18.6415 20.9009 18.8069 21.3301C18.975 21.7666 18.8528 22.1466 18.5148 22.4469C18.3776 22.5688 18.1982 22.6515 18.0264 22.7253C15.2243 23.929 12.719 25.5979 10.4093 27.5746C10.2791 27.686 10.1494 27.8008 10.0067 27.8945C9.52336 28.2109 8.95822 28.1323 8.62026 27.7111C8.28725 27.2961 8.30346 26.7091 8.73353 26.3176C9.35577 25.7511 10.0022 25.2071 10.6713 24.6969C12.6713 23.1722 14.8026 21.8631 17.12 20.8709C17.3567 20.7695 17.5953 20.6708 17.8747 20.6532Z" fill="#2179A1"/>
<path fill-rule="evenodd" clip-rule="evenodd" d="M7.45966 29.9313C7.46483 30.4878 7.0204 30.9532 6.46869 30.9687C5.90541 30.9845 5.42133 30.4987 5.4298 29.926C5.43795 29.3752 5.905 28.9105 6.44834 28.9127C6.99686 28.9148 7.4545 29.3757 7.45966 29.9313Z" fill="#2179A1"/>
</svg>
