<svg width="41" height="41" viewBox="0 0 41 41" fill="none" xmlns="http://www.w3.org/2000/svg">
<path d="M16.6977 30.483C16.4655 30.4823 16.2359 30.4338 16.0232 30.3405C15.8106 30.2473 15.6193 30.1113 15.4614 29.9411L7.23079 21.1854C6.92311 20.8575 6.75829 20.4209 6.77259 19.9715C6.78688 19.5221 6.97911 19.0967 7.307 18.7891C7.63488 18.4814 8.07156 18.3166 8.52096 18.3309C8.97037 18.3452 9.39569 18.5374 9.70337 18.8653L16.6808 26.2999L30.9235 10.7193C31.0681 10.5393 31.2479 10.3908 31.4519 10.2828C31.6559 10.1748 31.8799 10.1097 32.11 10.0915C32.3401 10.0732 32.5715 10.1022 32.7901 10.1766C33.0086 10.251 33.2095 10.3693 33.3807 10.5243C33.5518 10.6792 33.6894 10.8675 33.7851 11.0776C33.8808 11.2876 33.9326 11.515 33.9372 11.7458C33.9418 11.9766 33.8992 12.2059 33.812 12.4196C33.7248 12.6334 33.5948 12.827 33.43 12.9887L17.9509 29.9241C17.7945 30.0975 17.604 30.2366 17.3912 30.3328C17.1785 30.429 16.9481 30.4801 16.7147 30.483H16.6977Z" fill="white"/>
</svg>
