<svg width="54" height="59" viewBox="0 0 54 59" fill="none" xmlns="http://www.w3.org/2000/svg">
<path fill-rule="evenodd" clip-rule="evenodd" d="M39.8867 1.00024C42.8629 1.6632 45.0286 3.54721 47.0002 5.72305C47.1253 5.8612 47.2449 6.00472 47.3631 6.14914C47.6544 6.50474 47.7233 6.8908 47.4531 7.2803C47.2009 7.64381 46.8362 7.74358 46.4152 7.61633C46.0019 7.49163 45.5839 7.40635 45.15 7.44174C44.502 7.49431 43.9388 7.74163 43.4024 8.11455C41.8913 9.16566 40.2892 10.0316 38.4136 10.2114C36.7773 10.3682 35.3533 9.85818 34.1933 8.69671C33.9076 8.41071 33.7312 8.45746 33.462 8.65952C32.6313 9.28245 32.1286 10.6397 32.3837 11.616C32.4675 11.9368 32.7478 11.8176 32.9348 11.8309C35.1686 11.9889 37.3213 12.4889 39.3563 13.4194C45.5449 16.2489 49.3507 21.014 50.8251 27.6492C50.961 28.2608 50.6774 28.743 50.1393 28.8583C49.6433 28.9645 49.2136 28.6343 49.0721 28.0385C48.4322 25.3452 47.8123 23.7808 46.6535 21.9601C45.9107 22.7941 45.359 23.7288 44.9153 24.7312C44.5761 25.4974 44.2281 26.258 43.8074 26.9843C43.0223 28.3389 41.9059 29.0689 40.2871 29.025C39.2068 28.9957 38.1259 28.9074 37.0415 28.9769C35.7895 29.0569 34.7889 29.5888 34.0308 30.5742C33.2465 31.5939 32.7196 32.7346 32.4888 34.006C32.4622 34.1524 32.4374 34.302 32.3861 34.4406C32.2224 34.8797 31.8926 35.1089 31.4316 35.0404C30.9504 34.969 30.6741 34.6587 30.6648 34.1558C30.6115 31.2117 33.4261 27.7649 36.3161 27.2573C36.9588 27.1444 37.615 27.1274 38.2702 27.162C38.7735 27.1886 39.2847 27.1519 39.78 27.2261C41.2017 27.4395 42.039 26.7477 42.5707 25.5229C42.7557 25.0965 42.9745 24.6843 43.1552 24.2562C43.6955 22.9754 44.3987 21.7951 45.3263 20.7583C45.5334 20.5268 45.5758 20.3879 45.3564 20.1278C44.4139 19.0094 43.3716 18.0022 42.2091 17.1136C41.9512 16.9165 41.8306 16.9574 41.6363 17.1862C41.237 17.6567 40.7677 18.0568 40.2507 18.3988C39.1252 19.1428 37.9182 19.4072 36.6383 18.8947C35.5037 18.4404 34.5725 18.5974 33.5915 19.38C32.0479 20.611 30.2279 21.1361 28.2448 20.8318C26.8898 20.6237 25.8736 19.7976 24.9778 18.8147C24.2325 17.9966 23.6257 17.0779 23.1246 16.0955C22.9584 15.7697 22.831 15.7698 22.5469 15.9389C20.997 16.8609 19.604 17.9718 18.3712 19.2896C18.1407 19.536 18.1607 19.6394 18.432 19.8186C19.3516 20.4272 20.1905 21.1351 20.9967 21.8906C22.9118 23.6858 23.2804 25.7765 22.2454 28.1417C21.8132 29.1295 21.3303 30.0956 20.8539 31.0634C20.6145 31.5497 20.1382 31.7228 19.6871 31.5268C19.2204 31.3243 19.0244 30.8328 19.2502 30.3091C19.5298 29.6603 19.833 29.0206 20.1545 28.3916C20.5385 27.6402 20.8064 26.8597 20.9819 26.0312C21.131 25.3276 20.9508 24.7369 20.5688 24.1842C19.6817 22.9004 18.4437 22.0012 17.1812 21.129C16.8741 20.9169 16.8263 21.2099 16.7328 21.3446C15.5985 22.9801 14.7592 24.756 14.2251 26.6756C13.7774 28.2845 13.5517 29.9222 13.5619 31.593C13.5662 32.3227 13.2671 32.7127 12.7042 32.7301C12.1149 32.7482 11.7803 32.3445 11.7696 31.6011C11.6316 22.145 18.6947 13.6395 27.9723 12.0772C28.728 11.9499 29.4872 11.8733 30.247 11.7901C30.3717 11.7766 30.531 11.8472 30.593 11.6154C30.8645 10.5986 30.2745 9.11936 29.369 8.56006C29.1587 8.43027 29.0379 8.44207 28.857 8.62219C27.2066 10.2659 25.2417 10.5975 23.0796 9.91449C21.795 9.50856 20.6065 8.88638 19.5179 8.08394C18.6673 7.45713 17.7321 7.27224 16.7157 7.5787C16.2477 7.71968 15.8179 7.71923 15.515 7.27896C15.1923 6.80971 15.3775 6.40035 15.7114 6.01697C17.2802 4.21674 19.0072 2.61753 21.2061 1.59823C21.7755 1.33418 22.3976 1.24234 22.9711 1.00054C23.4938 1.00054 24.0166 1.00054 24.5394 1.00054C24.5673 1.12644 24.6703 1.09792 24.7574 1.11151C25.5908 1.24219 26.3816 1.50399 27.1171 1.91634C28.7762 2.84692 29.3942 4.38565 29.58 6.17199C29.6042 6.40512 29.5624 6.652 29.8554 6.78327C30.4244 7.03806 30.9026 7.42382 31.2961 7.90547C31.4435 8.08588 31.532 8.07871 31.6758 7.90233C32.0078 7.49506 32.3961 7.13961 32.8737 6.91604C33.2327 6.74802 33.3722 6.52236 33.406 6.11345C33.6183 3.54199 34.8596 2.06001 37.3462 1.30133C37.634 1.21366 37.98 1.26862 38.2064 1.00069C38.7665 1.00025 39.3265 1.00024 39.8867 1.00024ZM40.3612 15.9188C40.248 15.8504 40.1869 15.8107 40.1233 15.7755C37.7572 14.4576 35.2116 13.7388 32.5176 13.5768C29.8769 13.4179 27.3192 13.8453 24.8587 14.8267C24.7062 14.8875 24.4792 14.8882 24.645 15.1859C25.3107 16.3809 26.0327 17.5297 27.1284 18.3877C27.8985 18.9906 28.7535 19.2294 29.7444 19.0846C30.9237 18.9122 31.9542 18.4545 32.8715 17.7106C33.7357 17.0098 34.6965 16.6433 35.8281 16.8512C36.3238 16.9422 36.8126 17.0534 37.2859 17.228C37.9076 17.4574 38.4915 17.358 39.0546 17.0336C39.545 16.751 39.962 16.3854 40.3612 15.9188ZM35.6478 7.65188C36.5859 8.31378 37.5106 8.62204 38.5649 8.42415C39.4895 8.25091 40.3249 7.84274 41.1508 7.41501C42.2506 6.84555 43.1682 5.93363 44.5262 5.71618C43.3901 4.67464 42.2772 3.78961 40.9473 3.19714C39.4562 2.53285 38.0362 2.76045 36.6682 3.51137C35.7894 3.99361 35.3817 4.80113 35.2671 5.86031C35.9437 5.57535 36.5521 5.31355 37.1649 5.06264C37.7671 4.81607 38.2807 4.97348 38.4935 5.45796C38.7233 5.98128 38.4875 6.44186 37.8381 6.72144C37.1398 7.02193 36.4388 7.31614 35.6478 7.65188ZM27.7145 5.86583C27.6746 5.62822 27.6612 5.48246 27.6249 5.34252C27.1898 3.654 25.0913 2.47296 23.1778 2.8526C21.2906 3.22701 19.8921 4.41328 18.4372 5.7129C19.5698 5.91168 20.3882 6.53774 21.2489 7.08794C22.0832 7.62126 22.9844 8.02301 23.9287 8.31453C25.1409 8.68894 26.238 8.44252 27.3098 7.64097C26.5022 7.30345 25.7803 7.00998 25.0654 6.70039C24.4969 6.45411 24.2704 5.98621 24.4583 5.49485C24.6478 4.99917 25.1807 4.81114 25.768 5.0489C26.3868 5.29921 26.9994 5.56475 27.7145 5.86583Z" fill="#2179A1" stroke="#2179A1" stroke-width="0.3"/>
<path fill-rule="evenodd" clip-rule="evenodd" d="M15.9128 58.3575C14.3414 56.7986 12.7659 55.2439 11.1992 53.6802C7.96258 50.4492 4.7304 47.2135 1.49688 43.9794C0.838708 43.321 0.834526 42.9294 1.48359 42.2783C2.55112 41.2075 3.61956 40.1377 4.69172 39.0715C5.28986 38.4768 5.69549 38.4892 6.31572 39.0828C6.63607 39.3896 6.90565 39.9389 7.28663 39.94C7.66821 39.941 7.94197 39.3948 8.25739 39.0837C9.21441 38.1402 10.1563 37.1812 11.1113 36.2355C15.241 32.1458 21.5672 32.2793 25.5161 36.5477C25.7294 36.7783 25.9374 36.8538 26.2364 36.8531C29.3911 36.8446 32.5459 36.8568 35.7006 36.8437C37.0466 36.838 38.1443 37.3079 38.9032 38.4369C39.1644 38.8257 39.28 38.5328 39.429 38.3842C41.6229 36.196 43.8015 33.9919 46.0087 31.8169C48.0089 29.846 51.1688 30.2832 52.4914 32.6864C53.3745 34.2912 53.0967 36.1988 51.7432 37.5715C50.0657 39.273 48.3672 40.9536 46.6776 42.6431C45.0409 44.2798 43.4024 45.9149 41.7678 47.5538C39.9374 49.3884 37.7318 50.2999 35.1374 50.2947C30.9558 50.2861 26.7739 50.3311 22.5934 50.2708C21.1789 50.2503 20.3148 51.0161 19.4619 51.9316C19.2997 52.1058 19.4195 52.19 19.5246 52.2956C19.8278 52.5995 20.1429 52.8922 20.4326 53.2086C20.842 53.6554 20.8535 54.1173 20.4247 54.5494C19.1548 55.8287 17.8661 57.0897 16.5848 58.3576C16.3608 58.3575 16.1368 58.3575 15.9128 58.3575ZM28.8596 48.4984C30.9875 48.4984 33.1154 48.501 35.2434 48.4977C37.2399 48.4946 38.9634 47.8058 40.3793 46.3944C43.7371 43.0474 47.0889 39.694 50.4371 36.3372C51.423 35.349 51.4557 33.9477 50.5381 33.0426C49.6164 32.1337 48.2072 32.1607 47.23 33.1331C44.7428 35.6084 42.2657 38.0942 39.7839 40.5748C39.638 40.7206 39.5125 40.8643 39.4577 41.0798C38.9598 43.0426 37.6987 44.0177 35.6705 44.0183C31.7134 44.0194 27.7562 44.0188 23.7991 44.0182C23.6312 44.0182 23.4584 44.0367 23.2964 44.0041C22.8174 43.9083 22.5278 43.6114 22.532 43.1151C22.536 42.6198 22.8267 42.3249 23.3086 42.2369C23.4716 42.2072 23.6438 42.2251 23.8116 42.2251C27.7875 42.2247 31.7633 42.2226 35.7392 42.2281C36.1591 42.2287 36.5562 42.176 36.9157 41.9466C37.5953 41.5132 37.9073 40.7042 37.6843 39.9547C37.4403 39.1348 36.7845 38.6448 35.885 38.6435C32.4878 38.6384 29.0906 38.6326 25.6934 38.6505C25.1562 38.6533 24.7921 38.469 24.4502 38.061C21.2615 34.2552 15.8849 34.0271 12.3535 37.5356C11.2148 38.6671 10.0991 39.8224 8.93841 40.9306C8.58147 41.2711 8.64495 41.4324 8.95947 41.7444C11.8229 44.5827 14.6686 47.4391 17.5195 50.29C18.0413 50.8118 18.0695 50.8363 18.5482 50.2948C19.7179 48.9717 21.1589 48.4181 22.9245 48.4819C24.9004 48.5534 26.881 48.4984 28.8596 48.4984ZM5.49267 40.8281C5.37708 40.9371 5.28239 41.0224 5.19233 41.112C4.70352 41.5992 4.21545 42.0871 3.72754 42.575C3.18122 43.1213 3.18107 43.1216 3.70812 43.6487C6.05571 45.9964 8.4033 48.344 10.7509 50.6916C12.4654 52.4061 14.1889 54.112 15.8862 55.8432C16.1876 56.1506 16.3466 56.1444 16.6201 55.8342C17.0141 55.3875 17.4573 54.9843 17.8786 54.5615C18.561 53.8769 18.5621 53.8751 17.8979 53.211C13.8888 49.2013 9.879 45.1923 5.86903 41.1837C5.75358 41.0684 5.63186 40.9595 5.49267 40.8281Z" fill="#2179A1" stroke="#2179A1" stroke-width="0.3"/>
</svg>
