<svg width="50" height="51" viewBox="0 0 50 51" fill="none" xmlns="http://www.w3.org/2000/svg">
<path fill-rule="evenodd" clip-rule="evenodd" d="M3.21868 50.952C3.20666 50.8447 3.11184 50.8455 3.0408 50.8172C1.48534 50.1976 0.804329 49.1945 0.803653 47.5058C0.801762 43.3023 0.802977 39.0991 0.802977 34.8958C0.802977 34.1271 0.797305 33.3583 0.804193 32.5898C0.822022 30.5863 2.13151 29.2753 4.12756 29.2656C5.40315 29.2594 6.67901 29.2652 7.95473 29.2644C9.17562 29.2634 10.1465 29.7454 10.7871 30.7949C10.9519 31.0647 11.0813 31.0054 11.2874 30.9075C13.0382 30.074 14.7483 29.1527 16.5609 28.4521C18.4893 27.7068 20.4887 27.3448 22.5532 27.4085C25.1683 27.4896 27.783 27.5905 30.3964 27.7154C32.2921 27.806 33.7364 29.2536 33.8701 31.1317C34.0036 33.0057 32.7328 34.6789 30.8773 35.0448C29.1636 35.3826 27.4462 35.701 25.7301 36.0253C25.0705 36.1498 24.9553 36.4626 25.208 37.0646C25.5943 37.9852 26.194 38.2824 27.1968 38.1688C28.509 38.0201 29.8413 38.0353 31.1656 38.0095C33.0629 37.9725 34.7505 37.3731 36.2249 36.1825C38.4631 34.375 40.6922 32.5559 42.9327 30.7514C44.371 29.5929 46.2034 29.5112 47.6042 30.5209C49.6781 32.0159 49.7431 34.9184 47.7315 36.5944C45.4833 38.4676 43.2142 40.3156 40.9801 42.2052C39.2422 43.6753 37.3568 44.8616 35.182 45.5828C32.9211 46.3326 30.6089 46.4185 28.2566 46.3021C24.6803 46.1253 21.106 45.8836 17.5241 45.8452C15.7639 45.8261 14.0627 46.287 12.3419 46.5805C11.9917 46.6403 11.5408 46.6194 11.3267 46.8295C11.1009 47.0513 11.2691 47.5124 11.2515 47.8685C11.1753 49.4134 10.2206 50.5235 8.66006 50.8754C8.64102 50.8797 8.63129 50.9255 8.61711 50.9518C6.81732 50.952 5.01793 50.952 3.21868 50.952ZM24.1808 44.0631C26.0916 44.1468 28.002 44.2488 29.9135 44.3098C32.2431 44.3843 34.4443 43.8653 36.5277 42.8176C37.8396 42.1579 38.9613 41.2388 40.0791 40.3086C42.2022 38.5419 44.3304 36.781 46.455 35.016C47.2375 34.3661 47.4136 33.4958 46.9267 32.7139C46.316 31.7332 45.1712 31.5553 44.2237 32.3175C42.0718 34.0487 39.9194 35.7794 37.7856 37.5325C36.0023 38.9978 33.9919 39.8767 31.6752 39.9901C30.1895 40.0629 28.6936 40.0203 27.2173 40.1744C25.4022 40.3642 24.1846 39.6763 23.4621 38.0335C23.4359 37.9742 23.3975 37.9201 23.3669 37.8625C22.5255 36.2838 23.3884 34.4192 25.1483 34.0646C26.8761 33.7167 28.6112 33.4051 30.3429 33.0767C31.306 32.894 31.9367 32.1493 31.8701 31.2754C31.8013 30.3714 31.105 29.7725 30.1038 29.7329C28.1763 29.6569 26.2472 29.6004 24.3222 29.4814C21.631 29.315 18.9971 29.4879 16.5112 30.6441C14.8859 31.4 13.2814 32.2002 11.6558 32.9553C11.3392 33.1022 11.2431 33.2732 11.2445 33.6127C11.2574 36.9645 11.2523 40.3167 11.2523 43.6687C11.2523 44.7287 11.2512 44.7231 12.2854 44.5213C14.5311 44.0833 16.7755 43.6561 19.0867 43.8091C20.7829 43.9219 22.4826 43.9812 24.1808 44.0631ZM9.21182 40.1064C9.21182 37.6053 9.21357 35.1042 9.21087 32.6032C9.20993 31.707 8.82039 31.3107 7.93312 31.3068C6.65821 31.3014 5.38316 31.3012 4.10811 31.307C3.23597 31.3109 2.83293 31.7239 2.83266 32.6122C2.83063 37.6143 2.8305 42.6162 2.83279 47.6183C2.8332 48.5005 3.23975 48.9096 4.11716 48.9132C5.35939 48.9184 6.60175 48.9161 7.84411 48.9141C8.842 48.9124 9.21087 48.5477 9.21141 47.5603C9.2129 45.0755 9.21182 42.5909 9.21182 40.1064Z" fill="#2179A1"/>
<path fill-rule="evenodd" clip-rule="evenodd" d="M34.3324 0.700087C35.09 0.920519 35.8805 0.976573 36.6429 1.18823C42.5502 2.82863 46.5729 8.42561 46.2971 14.6467C46.0312 20.6492 41.4787 25.8718 35.5428 26.9838C28.0925 28.3797 20.945 23.2459 19.9241 15.7654C18.9335 8.50584 23.9178 1.95055 31.2929 0.810169C31.3943 0.794365 31.5319 0.852714 31.5843 0.699951C32.5004 0.700086 33.4165 0.700087 34.3324 0.700087ZM44.2882 13.928C44.2623 7.71555 39.249 2.72477 33.0471 2.73706C26.8233 2.74935 21.8068 7.79673 21.842 14.0111C21.8771 20.2185 26.9116 25.2121 33.1033 25.1809C39.3093 25.1497 44.3143 20.1143 44.2882 13.928Z" fill="#2179A1"/>
<path fill-rule="evenodd" clip-rule="evenodd" d="M30.7927 17.2997C32.2379 18.6364 33.7842 19.0428 35.5536 18.6093C35.7432 18.5629 35.9275 18.4936 36.1172 18.4474C36.6591 18.3158 37.1763 18.5788 37.347 19.066C37.5344 19.6002 37.2765 20.1501 36.6995 20.3685C35.2108 20.9321 33.6988 20.9755 32.1844 20.4861C30.6194 19.9803 29.3881 19.0237 28.5064 17.6354C28.3456 17.3821 28.1755 17.2809 27.8784 17.2988C27.4547 17.324 27.0279 17.3156 26.6034 17.3001C26.0219 17.2788 25.6047 16.8551 25.6016 16.3075C25.5983 15.7602 26.0126 15.3401 26.5929 15.3033C26.6417 15.3002 26.6909 15.3008 26.7399 15.2999C27.5468 15.2838 27.5294 15.285 27.4759 14.4989C27.4562 14.2085 27.3476 14.1386 27.0896 14.1613C26.9113 14.1768 26.7294 14.1711 26.5506 14.1561C26.0185 14.1115 25.6054 13.6574 25.6178 13.1415C25.6298 12.6392 26.0406 12.1228 26.5388 12.1883C27.4566 12.3091 27.7573 11.8768 28.0987 11.0883C29.4843 7.88812 33.2605 6.32376 36.5512 7.48265C37.2311 7.72212 37.5423 8.24524 37.3543 8.83279C37.1712 9.40575 36.5986 9.63497 35.9041 9.41372C33.5527 8.66423 31.1837 9.56716 30.0599 11.6409C29.7984 12.1232 29.8069 12.1402 30.3355 12.1405C32.0364 12.1414 33.7373 12.1367 35.4381 12.1429C36.1068 12.1455 36.5122 12.4407 36.602 12.959C36.7192 13.6369 36.2732 14.1522 35.5331 14.1557C33.685 14.1646 31.837 14.1532 29.989 14.1681C29.8152 14.1695 29.4936 13.9743 29.4767 14.3852C29.4509 15.0173 29.6184 15.2802 30.0436 15.2807C31.6463 15.2826 33.2489 15.2818 34.8518 15.2814C35.1657 15.2812 35.4779 15.2933 35.7274 15.5195C36.0444 15.8067 36.1837 16.1609 36.0455 16.5778C35.8902 17.047 35.5525 17.2963 35.0514 17.2975C33.7758 17.3004 32.4999 17.2992 31.2244 17.2997C31.131 17.2997 31.0377 17.2997 30.7927 17.2997Z" fill="#2179A1"/>
</svg>
