<svg width="48" height="48" viewBox="0 0 48 48" fill="none" xmlns="http://www.w3.org/2000/svg">
<path fill-rule="evenodd" clip-rule="evenodd" d="M3.95311 21.8541C3.95311 22.0476 3.96802 22.2192 3.9505 22.3875C3.88542 23.0137 3.96367 23.4492 4.68168 23.769C5.71107 24.2276 6.12143 25.5224 5.78211 26.6037C5.43348 27.7143 4.36745 28.4451 3.22169 28.359C2.05431 28.2713 1.12615 27.4004 0.929912 26.2088C0.753669 25.1396 1.38064 23.9911 2.434 23.5907C2.80462 23.4499 2.87665 23.2672 2.86274 22.9203C2.83766 22.3002 2.85442 21.6784 2.85306 21.0573C2.85181 20.508 3.01588 20.3428 3.56722 20.3428C7.3093 20.3428 11.0515 20.3374 14.7935 20.353C15.1488 20.3545 15.3101 20.2393 15.4302 19.9201C15.6918 19.2253 15.9829 18.5414 16.2795 17.8606C16.3703 17.6524 16.3702 17.5494 16.1412 17.4316C12.1344 15.3732 8.13276 13.3046 4.12923 11.2401C4.09247 11.2213 4.04179 11.2288 3.95324 11.2194C3.95324 11.6616 3.96727 12.0913 3.94827 12.5195C3.93572 12.8026 4.15407 12.786 4.31255 12.8507C5.27115 13.242 5.89625 14.1503 5.90159 15.1645C5.90681 16.1528 5.28555 17.0866 4.3682 17.4694C3.10531 17.9965 1.63749 17.4021 1.10479 16.1477C0.560659 14.8666 1.15981 13.3796 2.46741 12.8791C2.80052 12.7516 2.87206 12.5927 2.86163 12.2791C2.84113 11.6586 2.85343 11.0371 2.85293 10.4159C2.85243 9.89416 3.02682 9.71879 3.5384 9.71891C8.67801 9.72053 13.8175 9.7163 18.957 9.7327C19.3781 9.73394 19.5059 9.63595 19.4934 9.2036C19.461 8.08653 19.4753 6.96796 19.4844 5.85002C19.4954 4.50727 20.2271 3.78814 21.5694 3.7838C22.0818 3.78218 22.5953 3.76318 23.1062 3.79125C23.409 3.80789 23.4665 3.69996 23.4572 3.42448C23.4368 2.81949 23.4469 2.21351 23.4522 1.60803C23.4562 1.15481 23.6694 0.872999 24.0078 0.901938C24.4392 0.938826 24.5567 1.23505 24.5515 1.62392C24.5437 2.21388 24.5718 2.80509 24.541 3.39355C24.523 3.73511 24.6418 3.80715 24.9567 3.79075C25.4676 3.76417 25.9811 3.78044 26.4934 3.78417C27.7536 3.79348 28.4942 4.50914 28.5138 5.7724C28.5319 6.95219 28.5285 8.1326 28.511 9.3124C28.5062 9.63085 28.586 9.73109 28.9193 9.73034C34.0743 9.71941 39.2295 9.72314 44.3847 9.72127C45.0005 9.72103 45.1495 9.86386 45.1471 10.478C45.1445 11.099 45.163 11.7209 45.1371 12.3411C45.1245 12.6411 45.2263 12.756 45.5068 12.8617C46.5817 13.2665 47.2437 14.4087 47.0739 15.4912C46.8894 16.6688 45.9678 17.5628 44.846 17.6528C43.6424 17.7493 42.5922 17.0575 42.2262 15.9267C41.8199 14.6718 42.449 13.3359 43.7059 12.8551C43.9719 12.7534 44.0712 12.6434 44.0535 12.3642C44.0296 11.9939 44.0475 11.6208 44.0475 11.2599C43.8857 11.171 43.7907 11.2896 43.6904 11.3411C39.7818 13.3523 35.8777 15.3725 31.9646 17.3748C31.6502 17.5358 31.6202 17.6693 31.759 17.9708C32.0564 18.6169 32.3288 19.2759 32.5783 19.942C32.6933 20.249 32.8481 20.3536 33.1841 20.3523C36.9107 20.3384 40.6373 20.3438 44.3638 20.343C45.0152 20.3429 45.1498 20.4778 45.1468 21.1275C45.144 21.7641 45.1586 22.4012 45.139 23.0371C45.1302 23.3267 45.2134 23.4496 45.506 23.557C46.5797 23.9515 47.2429 25.1036 47.0739 26.186C46.8875 27.3804 45.9705 28.2568 44.8013 28.3577C43.659 28.4564 42.5854 27.734 42.2267 26.625C41.8281 25.393 42.4434 24.0336 43.6611 23.5705C43.9951 23.4435 44.0709 23.2825 44.0527 22.9703C44.0315 22.6025 44.0478 22.2325 44.0478 21.7869C43.3769 22.134 42.7635 22.4507 42.1509 22.7687C39.9663 23.9023 37.7857 25.0432 35.5933 26.1614C35.3013 26.3103 35.2796 26.436 35.3957 26.714C37.1626 30.9392 38.9196 35.1684 40.679 39.3969C41.1124 40.4385 41.5541 41.4769 41.9731 42.5244C42.0634 42.7503 42.1763 42.8228 42.4129 42.8168C43.049 42.8006 43.6862 42.8021 44.3225 42.8139C45.1468 42.8292 45.6175 43.2964 45.6358 44.1196C45.6488 44.7094 45.651 45.3001 45.6328 45.8895C45.6108 46.6034 45.1605 47.0701 44.4495 47.1467C44.3266 47.1599 44.2016 47.1572 44.0774 47.1572C30.6929 47.1576 17.3084 47.1577 3.92392 47.1569C3.76904 47.1569 3.61243 47.157 3.45953 47.1358C2.79928 47.0441 2.39537 46.6196 2.37289 45.953C2.3514 45.3172 2.35103 44.6797 2.37066 44.0436C2.39351 43.3024 2.86498 42.839 3.61466 42.8173C4.26623 42.7986 4.91891 42.8037 5.57084 42.816C5.79577 42.8202 5.92619 42.7768 6.02344 42.5421C8.21896 37.2398 10.4238 31.9411 12.6304 26.6433C12.7091 26.4543 12.7516 26.3389 12.5084 26.2137C9.70056 24.7688 6.90018 23.3095 4.09681 21.8556C4.07272 21.8434 4.03745 21.8541 3.95311 21.8541ZM29.5472 15.7709C29.5843 15.7761 29.6214 15.7812 29.6585 15.7863C29.6429 15.7495 29.6274 15.7127 29.612 15.6759C29.0152 14.2181 28.4171 12.7609 27.8242 11.3015C27.7573 11.1368 27.6962 11.0804 27.5235 11.1946C26.6988 11.7401 25.8673 12.275 24.9942 12.8422C26.5396 13.8363 28.0433 14.8036 29.5472 15.7709ZM18.463 15.7692C19.9641 14.8031 21.4652 13.8372 23.012 12.8417C22.1283 12.268 21.2966 11.7336 20.4721 11.1882C20.2925 11.0694 20.2395 11.1471 20.176 11.303C19.5823 12.7619 18.9843 14.219 18.3875 15.6765C18.3223 15.7056 18.305 15.7736 18.3387 15.814C18.3916 15.8772 18.4219 15.7894 18.463 15.7692ZM7.09046 42.7944C18.3836 42.7944 29.6168 42.7944 40.9081 42.7944C40.6255 42.1067 40.3495 41.4558 40.0918 40.7979C40.0006 40.5648 39.8511 40.4229 39.6322 40.3096C34.5321 37.6686 29.4339 35.0241 24.3401 32.3709C24.0905 32.2408 23.9059 32.2475 23.6605 32.3753C18.5665 35.0266 13.4677 37.6686 8.37073 40.3141C8.23535 40.3843 8.07078 40.4305 8.00533 40.5862C7.70178 41.3093 7.40444 42.0349 7.09046 42.7944ZM23.993 43.9109C17.3657 43.9109 10.7385 43.9109 4.11122 43.9109C4.01807 43.9109 3.9238 43.9204 3.83202 43.9091C3.53666 43.8727 3.4065 43.9758 3.42612 44.2939C3.44997 44.6804 3.43159 45.0695 3.43171 45.4577C3.43184 46.0685 3.43196 46.0686 4.02652 46.0686C17.3276 46.0686 30.6286 46.0686 43.9296 46.0686C44.0227 46.0686 44.1167 46.0608 44.2088 46.0701C44.4695 46.0968 44.5765 45.983 44.5709 45.7231C44.5618 45.3043 44.539 44.8824 44.5766 44.4668C44.6172 44.0182 44.4627 43.8999 44.0143 43.9008C37.3406 43.9153 30.6667 43.9109 23.993 43.9109ZM33.0856 26.2411C33.0159 26.1762 32.9984 26.151 32.9743 26.1387C30.0717 24.6441 27.1668 23.1538 24.2688 21.6504C24.0336 21.5284 23.8688 21.5874 23.6682 21.6909C20.8899 23.1232 18.1094 24.5509 15.3301 25.9811C15.2021 26.0469 15.0804 26.1254 14.9512 26.2008C14.9962 26.256 15.0102 26.2883 15.0344 26.301C17.9497 27.8138 20.8672 29.3223 23.7787 30.8421C23.9812 30.9478 24.1199 30.8968 24.2912 30.8069C25.2478 30.3046 26.2078 29.8085 27.1667 29.3108C29.1239 28.2953 31.0812 27.2806 33.0856 26.2411ZM8.75625 38.7757C8.78159 38.8019 8.80693 38.8281 8.83239 38.8545C13.4793 36.4428 18.1261 34.0312 22.8128 31.599C19.833 30.0507 16.905 28.5333 13.9832 27.0041C13.7259 26.8695 13.66 26.9622 13.5696 27.182C12.6697 29.3685 11.7616 31.5519 10.8544 33.7355C10.1561 35.4158 9.45564 37.0955 8.75625 38.7757ZM39.1792 38.8553C39.2108 38.7754 39.2234 38.7596 39.2196 38.7506C37.6094 34.864 35.9961 30.9786 34.3914 27.0896C34.2999 26.8679 34.1969 26.9214 34.0516 26.9975C33.5875 27.2407 33.1215 27.4802 32.6566 27.7217C30.1863 29.0054 27.7164 30.2894 25.1965 31.5991C29.8813 34.0302 34.5211 36.438 39.1792 38.8553ZM42.2469 10.8605C42.1511 10.8063 42.1396 10.7944 42.1283 10.7944C37.7984 10.7928 33.4684 10.7959 29.1385 10.7848C28.7365 10.7838 28.8493 10.9532 28.9401 11.1706C29.644 12.8543 30.3518 14.5362 31.0388 16.2267C31.1566 16.5165 31.2511 16.5424 31.5242 16.3999C33.9245 15.1477 36.3338 13.9123 38.7401 12.6714C39.8918 12.0776 41.0426 11.4825 42.2469 10.8605ZM5.79391 10.7913C5.84396 10.8726 5.85316 10.909 5.87514 10.9204C9.44806 12.7645 13.0228 14.6051 16.5933 16.454C16.7954 16.5587 16.8498 16.4923 16.9213 16.3185C17.6393 14.5742 18.3574 12.83 19.0922 11.0927C19.2142 10.8041 19.1086 10.7884 18.8706 10.7887C14.5288 10.7921 10.1867 10.7913 5.79391 10.7913ZM18.2202 17.2376C18.2852 17.2945 18.3153 17.3334 18.3548 17.3537C20.164 18.2895 21.9758 19.2199 23.781 20.1633C23.9812 20.268 24.1204 20.2086 24.2886 20.1215C25.9873 19.24 27.6884 18.3634 29.3876 17.4827C29.519 17.4146 29.6816 17.3883 29.7649 17.2257C27.9328 16.0351 26.1009 14.8483 24.2749 13.6528C24.0804 13.5256 23.9399 13.5161 23.7374 13.6489C21.9122 14.846 20.0793 16.0309 18.2202 17.2376ZM24.015 4.87963C23.1613 4.87963 22.3077 4.87504 21.4542 4.88125C20.8445 4.88547 20.5676 5.15387 20.5639 5.75724C20.5563 6.95231 20.5696 8.14751 20.5556 9.34246C20.5523 9.61868 20.6136 9.7173 20.9118 9.71544C22.976 9.7024 25.0403 9.70413 27.1045 9.71394C27.3693 9.71519 27.4474 9.63855 27.4444 9.37314C27.4313 8.16266 27.4447 6.95182 27.4359 5.74122C27.4316 5.16132 27.1526 4.88696 26.5758 4.88174C25.7224 4.87404 24.8686 4.87976 24.015 4.87963ZM33.2142 21.4513C33.7202 22.6634 34.2195 23.8263 34.6869 25.0017C34.8056 25.3001 34.906 25.3192 35.1753 25.1767C36.7737 24.3308 38.3823 23.504 39.9868 22.6697C40.7225 22.2872 41.4569 21.9026 42.1919 21.5191C42.1853 21.4965 42.1789 21.4739 42.1723 21.4513C39.2064 21.4513 36.2405 21.4513 33.2142 21.4513ZM5.68995 21.4534C6.53987 21.8964 7.2631 22.2745 7.98707 22.6508C9.60766 23.4933 11.2279 24.3366 12.8516 25.173C12.9735 25.2358 13.1305 25.4408 13.2509 25.1484C13.7555 23.9232 14.2644 22.6995 14.7808 21.4534C11.766 21.4534 8.79997 21.4534 5.68995 21.4534ZM14.3752 25.2578C16.8685 23.9741 19.2654 22.74 21.6621 21.5059C19.8361 21.4201 18.0433 21.4209 16.2506 21.4187C16.0875 21.4185 15.9608 21.4304 15.8842 21.6181C15.4024 22.799 14.9087 23.9749 14.3752 25.2578ZM33.6251 25.2535C33.0939 23.9793 32.6059 22.815 32.125 21.6479C32.0655 21.5036 31.999 21.4176 31.8273 21.418C30.0076 21.422 28.1877 21.4205 26.3678 21.4205C26.3595 21.4483 26.3511 21.4761 26.3428 21.5039C28.7359 22.7362 31.1291 23.9682 33.6251 25.2535ZM3.38265 27.2665C4.1768 27.2744 4.80452 26.6616 4.80812 25.8751C4.8116 25.0943 4.17742 24.4572 3.39855 24.459C2.6321 24.4607 2.01482 25.0698 2.00264 25.8362C1.98985 26.6356 2.59124 27.259 3.38265 27.2665ZM45.9976 25.8703C45.9983 25.0801 45.373 24.4537 44.5882 24.459C43.809 24.4642 43.1829 25.1049 43.1922 25.8877C43.2013 26.6571 43.8098 27.2605 44.5826 27.2667C45.3787 27.273 45.997 26.663 45.9976 25.8703ZM2.00252 15.1937C2.01146 15.9787 2.65011 16.5936 3.4368 16.5749C4.20152 16.5567 4.80849 15.9357 4.80824 15.172C4.80812 14.3892 4.17928 13.7679 3.39135 13.772C2.60155 13.776 1.99345 14.3986 2.00252 15.1937ZM45.9976 15.1528C45.9898 14.3646 45.3596 13.7565 44.5669 13.772C43.8 13.787 43.1947 14.4008 43.1917 15.1665C43.1888 15.9489 43.8208 16.5795 44.6037 16.5751C45.3919 16.5706 46.0054 15.9444 45.9976 15.1528ZM21.5029 20.3368C21.5129 20.3092 21.523 20.2815 21.5329 20.254C20.2066 19.572 18.8806 18.8894 17.5534 18.2091C17.4677 18.1651 17.3673 18.0572 17.2951 18.233C17.0105 18.9253 16.7243 19.6172 16.4272 20.3368C18.1636 20.3368 19.8333 20.3368 21.5029 20.3368ZM31.5728 20.3341C31.2959 19.6595 31.0247 19.0403 30.7892 18.4077C30.6803 18.1151 30.56 18.1437 30.3277 18.266C29.1289 18.8974 27.9205 19.511 26.717 20.1336C26.6315 20.1778 26.507 20.1864 26.4922 20.3341C28.1654 20.3341 29.8326 20.3341 31.5728 20.3341ZM26.0485 10.8629C24.6337 10.8629 23.3487 10.8629 21.9586 10.8629C22.6413 11.3055 23.2344 11.687 23.8241 12.074C23.9368 12.1481 24.0245 12.1799 24.1556 12.0924C24.7524 11.6951 25.3575 11.3099 26.0485 10.8629Z" fill="#2179A1" stroke="#2179A1" stroke-width="0.5"/>
<path fill-rule="evenodd" clip-rule="evenodd" d="M18.4633 15.7694C18.4222 15.7898 18.3917 15.8775 18.3391 15.8142C18.3054 15.7739 18.3226 15.7058 18.3879 15.6768C18.4131 15.7077 18.4382 15.7386 18.4633 15.7694Z" fill="#2179A1" stroke="#2179A1" stroke-width="0.5"/>
<path fill-rule="evenodd" clip-rule="evenodd" d="M29.6117 15.6763C29.6271 15.713 29.6426 15.7499 29.6582 15.7867C29.621 15.7816 29.5839 15.7765 29.5469 15.7713C29.5684 15.7396 29.59 15.7079 29.6117 15.6763Z" fill="#2179A1" stroke="#2179A1" stroke-width="0.5"/>
</svg>
