<svg width="20" height="20" viewBox="0 0 20 20" fill="none" xmlns="http://www.w3.org/2000/svg">
<path d="M6.66747 10.0004C6.66747 8.15946 8.15946 6.66667 10.0004 6.66667C11.8414 6.66667 13.3341 8.15946 13.3341 10.0004C13.3341 11.8414 11.8414 13.3341 10.0004 13.3341C8.15946 13.3341 6.66747 11.8414 6.66747 10.0004ZM4.8653 10.0004C4.8653 12.8365 7.16426 15.1355 10.0004 15.1355C12.8365 15.1355 15.1355 12.8365 15.1355 10.0004C15.1355 7.16426 12.8365 4.8653 10.0004 4.8653C7.16426 4.8653 4.8653 7.16426 4.8653 10.0004ZM14.1387 4.66174C14.1387 5.32412 14.6759 5.86211 15.3391 5.86211C16.0015 5.86211 16.5394 5.32412 16.5394 4.66174C16.5394 3.99935 16.0023 3.46218 15.3391 3.46218C14.6759 3.46218 14.1387 3.99935 14.1387 4.66174ZM5.95985 18.1405C4.98485 18.096 4.45495 17.9337 4.10275 17.7964C3.63585 17.6146 3.30304 17.3981 2.95246 17.0483C2.60269 16.6986 2.3854 16.3658 2.20445 15.8989C2.06713 15.5467 1.90476 15.0168 1.86033 14.0418C1.81187 12.9876 1.80217 12.6709 1.80217 10.0004C1.80217 7.32986 1.81267 7.01402 1.86033 5.95905C1.90476 4.98405 2.06793 4.45495 2.20445 4.10194C2.3862 3.63504 2.60269 3.30223 2.95246 2.95165C3.30223 2.60188 3.63504 2.38459 4.10275 2.20364C4.45495 2.06632 4.98485 1.90395 5.95985 1.85953C7.01402 1.81106 7.33067 1.80137 10.0004 1.80137C12.6709 1.80137 12.9868 1.81187 14.0418 1.85953C15.0168 1.90395 15.5459 2.06713 15.8989 2.20364C16.3658 2.38459 16.6986 2.60188 17.0492 2.95165C17.3989 3.30143 17.6154 3.63504 17.7972 4.10194C17.9345 4.45414 18.0969 4.98405 18.1413 5.95905C18.1898 7.01402 18.1994 7.32986 18.1994 10.0004C18.1994 12.6701 18.1898 12.9868 18.1413 14.0418C18.0969 15.0168 17.9337 15.5467 17.7972 15.8989C17.6154 16.3658 17.3989 16.6986 17.0492 17.0483C16.6994 17.3981 16.3658 17.6146 15.8989 17.7964C15.5467 17.9337 15.0168 18.096 14.0418 18.1405C12.9876 18.1889 12.6709 18.1986 10.0004 18.1986C7.33067 18.1986 7.01402 18.1889 5.95985 18.1405ZM5.87746 0.060584C4.8128 0.109051 4.08579 0.277879 3.45006 0.525062C2.79252 0.780322 2.23515 1.12282 1.67858 1.67858C1.12282 2.23434 0.780322 2.79171 0.525062 3.45006C0.277879 4.08579 0.109051 4.8128 0.060584 5.87746C0.011309 6.94374 0 7.28462 0 10.0004C0 12.7162 0.011309 13.0571 0.060584 14.1234C0.109051 15.188 0.277879 15.915 0.525062 16.5507C0.780322 17.2083 1.12202 17.7665 1.67858 18.3222C2.23434 18.878 2.79171 19.2197 3.45006 19.4757C4.0866 19.7229 4.8128 19.8918 5.87746 19.9402C6.94455 19.9887 7.28462 20.0008 10.0004 20.0008C12.717 20.0008 13.0571 19.9895 14.1234 19.9402C15.188 19.8918 15.915 19.7229 16.5507 19.4757C17.2083 19.2197 17.7657 18.878 18.3222 18.3222C18.878 17.7665 19.2197 17.2083 19.4757 16.5507C19.7229 15.915 19.8926 15.188 19.9402 14.1234C19.9887 13.0563 20 12.7162 20 10.0004C20 7.28462 19.9887 6.94374 19.9402 5.87746C19.8918 4.8128 19.7229 4.08579 19.4757 3.45006C19.2197 2.79252 18.878 2.23515 18.3222 1.67858C17.7665 1.12282 17.2083 0.780322 16.5516 0.525062C15.915 0.277879 15.188 0.108243 14.1242 0.060584C13.0579 0.0121168 12.717 0 10.0012 0C7.28462 0 6.94455 0.011309 5.87746 0.060584Z" fill="white"/>
</svg>
