<svg width="50" height="38" viewBox="0 0 50 38" fill="none" xmlns="http://www.w3.org/2000/svg">
<path fill-rule="evenodd" clip-rule="evenodd" d="M0.000260304 6.35687C0.163951 6.3053 0.130093 6.14239 0.161217 6.03274C0.848276 3.61709 2.76126 2.10415 5.28005 2.09113C10.063 2.06665 14.8461 2.0815 19.6294 2.08631C20.373 2.0871 20.8261 2.50694 20.8196 3.14686C20.8131 3.78026 20.3563 4.18213 19.6035 4.18278C14.8692 4.18669 10.1348 4.18252 5.4005 4.18617C3.79771 4.18734 2.61229 5.03535 2.20521 6.45583C2.10598 6.80197 2.0755 7.15761 2.07563 7.51703C2.07628 14.3176 2.07342 21.118 2.07772 27.9185C2.07915 29.9522 3.40443 31.2568 5.4509 31.2582C8.10277 31.2602 10.7546 31.2563 13.4065 31.2603C14.1201 31.2613 14.5667 31.6659 14.5711 32.2909C14.5754 32.9067 14.1518 33.3247 13.4724 33.3311C12.2198 33.3431 10.967 33.3355 9.71429 33.3348C8.18507 33.3338 6.6552 33.3587 5.12664 33.3238C2.70162 33.2686 0.799442 31.7386 0.15731 29.3933C0.122801 29.2672 0.169421 29.0893 0 29.0129C0.000260447 21.461 0.000260304 13.9088 0.000260304 6.35687Z" fill="#2179A1"/>
<path fill-rule="evenodd" clip-rule="evenodd" d="M49.9992 24.6185C49.8484 24.6501 49.872 24.7949 49.8382 24.8904C49.3342 26.2981 48.2763 27.0601 46.7776 27.0849C45.8413 27.1004 45.8413 27.1004 45.8252 28.0597C45.7736 31.1045 43.5817 33.31 40.5373 33.3299C37.1524 33.3519 33.7674 33.3376 30.3826 33.3333C29.5196 33.3321 29.009 32.7447 29.2094 32.0082C29.338 31.5355 29.7622 31.2596 30.3839 31.2592C33.6874 31.2574 36.9911 31.2587 40.2945 31.2583C42.4752 31.2581 43.7477 29.9871 43.7488 27.8098C43.749 27.3053 43.7476 26.8008 43.7492 26.2963C43.7519 25.3701 44.118 25.0106 45.0599 25.0086C45.5806 25.0076 46.1013 25.0102 46.622 25.0081C47.5216 25.0049 47.8907 24.6412 47.8927 23.7312C47.8976 21.6155 47.8944 19.4999 47.8944 17.3843C47.8944 15.5129 47.8961 13.6413 47.8935 11.7699C47.8922 10.766 47.556 10.437 46.5412 10.4349C46.0204 10.4339 45.4995 10.4404 44.979 10.4334C44.148 10.4223 43.7546 10.0275 43.7497 9.20446C43.7459 8.58603 43.7541 7.9676 43.7477 7.34929C43.729 5.54583 42.415 4.20843 40.6044 4.19033C38.5866 4.17015 36.5685 4.18955 34.5506 4.18239C33.7974 4.17965 33.2977 3.71788 33.3319 3.08682C33.3612 2.54991 33.7691 2.0992 34.3513 2.09777C36.6287 2.09243 38.9121 1.96156 41.1826 2.1483C43.7699 2.36121 45.7125 4.50456 45.8146 7.09445C45.8299 7.48251 45.702 7.97124 45.8907 8.23208C46.0989 8.52 46.6167 8.30383 46.9982 8.33691C48.4508 8.46283 49.5263 9.35057 49.897 10.7549C49.9163 10.8281 49.8904 10.9221 49.9994 10.9462C49.9994 10.9788 49.9994 11.0113 49.9994 11.0439C49.8359 11.1443 49.9031 11.3047 49.9031 11.4416C49.9012 15.5366 49.9013 19.6317 49.9067 23.7266C49.9069 23.8942 49.8263 24.0876 49.9994 24.2274C49.9992 24.358 49.9992 24.4883 49.9992 24.6185Z" fill="#2179A1"/>
<path fill-rule="evenodd" clip-rule="evenodd" d="M49.9999 24.2278C49.8268 24.0881 49.9075 23.8946 49.9072 23.727C49.9019 19.6321 49.9017 15.537 49.9037 11.442C49.9037 11.3051 49.8365 11.1447 49.9999 11.0443C49.9999 15.4388 49.9999 19.8333 49.9999 24.2278Z" fill="#2179A1"/>
<path fill-rule="evenodd" clip-rule="evenodd" d="M22.7375 22.9347C21.9269 22.9347 21.1653 22.9347 20.4036 22.9347C18.5652 22.9347 16.7267 22.9302 14.8884 22.9376C14.3712 22.9399 13.9084 22.8555 13.6561 22.3396C13.4159 21.8486 13.6152 21.442 13.8989 21.0328C18.5833 14.2776 23.2615 7.5182 27.9435 0.761418C28.0722 0.57572 28.2027 0.376871 28.3763 0.240006C28.7412 -0.0475279 29.1549 -0.0846419 29.5554 0.171768C29.9672 0.43521 30.1266 0.820152 30.0201 1.3051C29.5368 3.50888 29.0554 5.7133 28.57 7.91668C28.1092 10.009 27.6508 12.1019 27.175 14.1909C27.0954 14.5405 27.2084 14.5909 27.5237 14.5896C30.094 14.5789 32.6647 14.5802 35.2351 14.5856C36.0793 14.5873 36.5771 15.135 36.4269 15.8677C36.3724 16.1342 36.1966 16.3291 36.0391 16.534C31.5582 22.357 27.0762 28.1795 22.5947 34.0023C21.8611 34.9555 21.1287 35.9097 20.3947 36.8629C19.9106 37.4916 19.4184 37.664 18.8999 37.3897C18.3824 37.1157 18.2376 36.5952 18.4797 35.8616C19.8465 31.7196 21.2144 27.5782 22.5814 23.4363C22.6315 23.285 22.6761 23.1325 22.7375 22.9347ZM33.2932 16.6845C33.0284 16.6845 32.872 16.6845 32.7156 16.6845C30.5194 16.6845 28.3233 16.6857 26.1272 16.684C25.0226 16.6831 24.6107 16.1689 24.8473 15.1052C25.3513 12.8397 25.8528 10.5736 26.3522 8.30709C26.4991 7.64048 26.6358 6.97178 26.7773 6.30386C26.7414 6.29058 26.7055 6.2773 26.6697 6.26402C23.3236 11.0964 19.9775 15.9286 16.581 20.8336C16.8557 20.8336 17.016 20.8336 17.1763 20.8336C19.3886 20.8336 21.6011 20.8333 23.8134 20.8337C25.0557 20.8339 25.4603 21.3973 25.0696 22.5796C24.2251 25.1351 23.3812 27.6909 22.5364 30.2462C22.4911 30.3835 22.4 30.515 22.4941 30.7132C26.083 26.0515 29.6492 21.4184 33.2932 16.6845Z" fill="#2179A1"/>
</svg>
