<svg width="22" height="22" viewBox="0 0 22 22" fill="none" xmlns="http://www.w3.org/2000/svg">
<path d="M3.5 6C2.12167 6 1 4.87833 1 3.5C1 2.12167 2.12167 1 3.5 1C4.87833 1 6 2.12167 6 3.5C6 4.87833 4.87833 6 3.5 6ZM3.5 1.83333C2.58083 1.83333 1.83333 2.58083 1.83333 3.5C1.83333 4.41917 2.58083 5.16667 3.5 5.16667C4.41917 5.16667 5.16667 4.41917 5.16667 3.5C5.16667 2.58083 4.41917 1.83333 3.5 1.83333ZM5.58333 21H1.41667C1.30616 21 1.20018 20.9561 1.12204 20.878C1.0439 20.7998 1 20.6938 1 20.5833V8.08333C1 7.97283 1.0439 7.86685 1.12204 7.78871C1.20018 7.71057 1.30616 7.66667 1.41667 7.66667H5.58333C5.69384 7.66667 5.79982 7.71057 5.87796 7.78871C5.9561 7.86685 6 7.97283 6 8.08333V20.5833C6 20.6938 5.9561 20.7998 5.87796 20.878C5.79982 20.9561 5.69384 21 5.58333 21ZM1.83333 20.1667H5.16667V8.5H1.83333V20.1667ZM20.5833 21H16.4167C16.3062 21 16.2002 20.9561 16.122 20.878C16.0439 20.7998 16 20.6938 16 20.5833V13.0833C16 12.1375 15.6058 11.4275 14.9175 11.1367C14.2067 10.835 13.3392 11.02 12.6667 11.6V20.5833C12.6667 20.6938 12.6228 20.7998 12.5446 20.878C12.4665 20.9561 12.3605 21 12.25 21H8.08333C7.97283 21 7.86685 20.9561 7.7887 20.878C7.71057 20.7998 7.66667 20.6938 7.66667 20.5833V8.08333C7.66667 7.97283 7.71057 7.86685 7.7887 7.78871C7.86685 7.71057 7.97283 7.66667 8.08333 7.66667H12.25C12.3424 7.66669 12.4321 7.6974 12.5051 7.75396C12.5781 7.81053 12.6302 7.88974 12.6533 7.97917C13.99 7.0175 16.2167 6.4825 17.9975 7.0925C19.3417 7.55333 20.9525 8.82 21 12.245V20.5842C20.9998 20.6945 20.9558 20.8003 20.8777 20.8783C20.7996 20.9562 20.6937 21 20.5833 21ZM16.8333 20.1667H20.1667V12.25C20.135 9.92917 19.2908 8.41583 17.7275 7.88083C15.7858 7.21583 13.3392 8.22 12.575 9.17667C12.5208 9.24344 12.4473 9.29185 12.3646 9.31529C12.2818 9.33872 12.1939 9.33602 12.1127 9.30757C12.0315 9.27912 11.9612 9.2263 11.9112 9.15633C11.8611 9.08637 11.834 9.00266 11.8333 8.91667V8.5H8.5V20.1667H11.8333V11.4167C11.8333 11.3611 11.8445 11.306 11.8661 11.2548C11.8877 11.2035 11.9193 11.1571 11.9592 11.1183C12.8908 10.2133 14.1817 9.92167 15.2417 10.3692C16.2533 10.7975 16.8333 11.7867 16.8325 13.0833L16.8333 20.1667Z" fill="white" stroke="white" stroke-width="0.6"/>
</svg>
