<svg width="50" height="50" viewBox="0 0 50 50" fill="none" xmlns="http://www.w3.org/2000/svg">
<path fill-rule="evenodd" clip-rule="evenodd" d="M32.4076 1.00013C32.859 1.22578 33.0094 1.57996 32.9897 2.08903C32.8573 5.48827 30.0595 8.1524 26.5349 8.20903C25.8053 8.22078 25.8053 8.22078 25.8053 8.93939C25.8053 10.2828 25.8033 11.6263 25.8079 12.9697C25.8084 13.117 25.7598 13.2746 25.8786 13.4568C26.3645 12.8271 26.878 12.2532 27.4863 11.7674C29.1064 10.4736 30.9524 9.82939 33.0199 9.80639C33.5042 9.80113 33.9886 9.79888 34.4727 9.80701C35.1058 9.81751 35.4284 10.1387 35.3956 10.7765C35.2186 14.221 33.6225 16.7884 30.5858 18.431C29.2695 19.143 27.8373 19.4418 26.3458 19.3831C25.8725 19.3645 25.7866 19.518 25.7944 19.9545C25.8219 21.4998 25.8051 23.0459 25.8051 24.5885C25.975 24.638 26.0022 24.4996 26.0601 24.4266C27.8781 22.1346 30.2742 21.042 33.1736 20.9937C33.6108 20.9864 34.0489 20.9782 34.4855 20.9966C35.1203 21.0234 35.4086 21.3483 35.3988 21.9885C35.3302 26.4693 31.7475 30.2473 27.2691 30.5602C27.0043 30.5787 26.7394 30.6015 26.4741 30.6066C25.8053 30.6195 25.8051 30.6157 25.8051 31.3076C25.8051 33.0571 25.798 34.8067 25.8116 36.5562C25.8141 36.8751 25.7799 37.0597 25.3938 37.0069C25.0119 36.9546 24.5055 37.1675 24.2689 36.9269C24.0323 36.6862 24.2023 36.1838 24.2003 35.7969C24.1922 34.2504 24.1788 32.7035 24.2084 31.1576C24.2169 30.7154 24.1199 30.5946 23.659 30.5955C20.5663 30.6012 18.0607 29.3872 16.2291 26.8742C15.1605 25.408 14.6507 23.7405 14.604 21.9319C14.5895 21.3668 14.8755 21.0312 15.4323 21.0016C18.0433 20.8622 20.5031 21.273 22.5856 23.0204C23.1558 23.4987 23.6533 24.0457 24.1968 24.7418C24.1968 24.1296 24.1968 23.6539 24.1968 23.1783C24.1968 22.0691 24.1812 20.9596 24.2055 19.8511C24.2137 19.482 24.1124 19.3756 23.7405 19.3868C21.623 19.4508 19.6988 18.8639 18.0289 17.5505C15.8381 15.8274 14.7144 13.547 14.6048 10.7668C14.5827 10.2044 14.8601 9.83201 15.3515 9.81839C16.7877 9.77863 18.2242 9.7535 19.6189 10.2092C21.4544 10.8088 22.95 11.8748 24.1016 13.4327C24.2704 13.331 24.192 13.1752 24.1925 13.0537C24.199 11.5853 24.1812 10.1167 24.2073 8.64872C24.2142 8.26229 24.0861 8.20115 23.7388 8.2014C20.6755 8.20378 18.3127 6.59455 17.3497 3.86541C17.1622 3.33421 17.0703 2.78313 17.0189 2.22018C16.973 1.71785 17.0666 1.29904 17.5008 1C18.376 1 19.2508 1 20.126 1C20.148 1.07251 20.2057 1.07751 20.2697 1.08501C21.5809 1.24091 22.7043 1.79899 23.6892 2.66599C24.2057 3.1208 24.5955 3.67738 24.9643 4.22821C25.0159 4.22084 25.038 4.22421 25.0443 4.21596C25.0992 4.14083 25.1535 4.06519 25.2041 3.98718C26.2344 2.39745 27.6874 1.44281 29.5455 1.09539C29.6294 1.07976 29.7394 1.12027 29.7826 1C30.6575 1.00013 31.5326 1.00013 32.4076 1.00013ZM23.2345 28.996C24.4348 29.0079 24.2174 29.1184 23.9995 28.2008C23.1869 24.7781 20.3697 22.6165 16.7831 22.5958C16.2239 22.5926 16.2283 22.5918 16.3272 23.1204C16.9236 26.3126 19.6621 28.8844 23.2345 28.996ZM32.866 22.6066C29.1962 22.691 26.3895 25.431 25.8934 28.6805C25.8573 28.9172 25.8613 29.0004 26.1388 29.0135C29.6467 29.1789 32.7413 26.9146 33.5845 23.5042C33.847 22.4418 33.9083 22.5982 32.866 22.6066ZM23.3079 17.7888C24.2152 17.8082 24.2152 17.8082 24.0171 17.0069C23.1685 13.5719 20.3575 11.4136 16.748 11.3932C16.3165 11.3907 16.2349 11.4894 16.3162 11.9012C16.9904 15.3133 19.8313 17.7144 23.3079 17.7888ZM26.6723 17.7883C27.4594 17.794 28.2289 17.6696 28.9617 17.3926C31.5777 16.4038 33.1542 14.5244 33.6999 11.783C33.7355 11.6038 33.8288 11.4112 33.4639 11.3944C29.9241 11.2297 26.884 13.4815 26.0075 16.942C25.7885 17.8073 25.7885 17.8073 26.6723 17.7883ZM19.2701 2.5971C18.6614 2.58973 18.6614 2.58973 18.8174 3.17919C19.3583 5.2236 21.3658 6.62043 23.7153 6.6148C24.0728 6.61393 24.1221 6.52217 24.0378 6.19549C23.4862 4.06269 21.5927 2.62548 19.2701 2.5971ZM26.5111 6.60555C26.6941 6.58893 26.9884 6.56092 27.2831 6.53529C29.0945 6.37802 30.9995 4.61577 31.2765 2.84676C31.3025 2.68024 31.2988 2.60148 31.0883 2.59198C28.6812 2.48359 26.637 3.85391 26.0115 6.08248C25.8635 6.61018 25.8685 6.61155 26.5111 6.60555Z" fill="#2179A1" stroke="#2179A1" stroke-width="0.3"/>
<path fill-rule="evenodd" clip-rule="evenodd" d="M28.6554 49.0012C28.2426 48.6434 28.1787 48.1821 28.1842 47.6599C28.2054 45.6931 28.1625 43.7252 28.1989 41.7588C28.2796 37.3715 30.1329 33.9397 33.8189 31.5254C34.0451 31.3773 34.2304 31.1955 34.408 30.9983C36.0782 29.1412 37.7561 27.2911 39.4177 25.4267C40.1958 24.5537 41.1226 24.0784 42.3103 24.25C42.7122 24.3082 42.6027 24.0391 42.6029 23.849C42.6065 21.0076 42.5964 18.166 42.6109 15.3248C42.6152 14.4871 42.502 13.6398 42.7694 12.8148C43.1933 11.5072 44.4387 10.5943 45.8081 10.6031C47.1963 10.612 48.4065 11.5103 48.8359 12.832C48.8743 12.9503 48.8353 13.1219 48.9996 13.1881C48.9996 18.7506 48.9996 24.3133 48.9996 29.8758C48.8341 29.9487 48.8758 30.1198 48.8537 30.2405C48.7178 30.9839 48.4513 31.6776 48.0896 32.3356C46.1777 35.8123 44.3253 39.3238 42.3204 42.7461C41.3662 44.3748 40.7517 45.9973 41.0068 47.8903C41.0089 47.9057 41.0062 47.9215 41.0072 47.9372C41.0377 48.4352 40.852 48.805 40.3745 49.0012C36.4679 49.0012 32.5617 49.0012 28.6554 49.0012ZM47.4021 21.4861C47.4021 18.9548 47.4077 16.4235 47.3994 13.8923C47.3961 12.899 46.6989 12.1929 45.7745 12.2088C44.8657 12.2244 44.2119 12.9157 44.2104 13.8966C44.2048 17.5997 44.208 21.303 44.2074 25.0061C44.2074 25.1623 44.2076 25.3101 44.3137 25.4472C45.2394 26.6455 45.0959 28.3274 43.9237 29.5739C42.051 31.5655 40.2377 33.6129 38.3973 35.6347C38.136 35.9216 37.8726 36.4083 37.5932 36.4205C37.3097 36.433 37.0207 35.9511 36.7056 35.7254C36.4005 35.5069 36.4672 35.3606 36.6892 35.119C38.3814 33.2791 40.0603 31.4269 41.7412 29.5768C42.1822 29.0912 42.6478 28.6237 43.046 28.1048C43.6436 27.3256 43.2778 26.1812 42.3514 25.8879C41.708 25.684 41.1632 25.8773 40.7115 26.3837C39.4115 27.8409 38.1038 29.2914 36.796 30.7416C35.9095 31.7246 35.0882 32.7728 33.8901 33.4282C33.5549 33.6115 33.2795 33.9135 32.9982 34.1836C31.2339 35.8772 30.1628 37.9451 29.8961 40.3675C29.6496 42.606 29.8277 44.8634 29.788 47.1121C29.7841 47.3307 29.842 47.4087 30.0729 47.4083C33.0884 47.4013 36.1041 47.4013 39.1198 47.4083C39.3508 47.4087 39.4137 47.33 39.4081 47.1111C39.3955 46.6114 39.4273 46.1098 39.3981 45.6116C39.3648 45.045 39.5166 44.5574 39.7935 44.0599C42.0438 40.0159 44.2627 35.9543 46.513 31.9104C47.1217 30.8167 47.4182 29.6723 47.4079 28.4234C47.3885 26.1113 47.4024 23.7986 47.4021 21.4861Z" fill="#2179A1" stroke="#2179A1" stroke-width="0.3"/>
<path fill-rule="evenodd" clip-rule="evenodd" d="M1 13.0941C1.16052 13.0321 1.1464 12.8725 1.18878 12.7476C1.68347 11.2895 3.1228 10.4425 4.74778 10.656C6.11385 10.8355 7.29077 12.1147 7.36966 13.546C7.40841 14.247 7.39254 14.9514 7.39316 15.6542C7.39529 18.3881 7.39854 21.122 7.38779 23.8559C7.38654 24.1691 7.42917 24.2886 7.78997 24.2416C8.88237 24.0992 9.76425 24.5157 10.4902 25.3275C12.1977 27.2371 13.9152 29.1379 15.6295 31.0414C15.7752 31.2032 15.9209 31.3608 16.1114 31.4802C18.5859 33.0291 20.2894 35.1945 21.2113 37.9595C21.5822 39.0723 21.7942 40.2276 21.8023 41.4049C21.8175 43.5607 21.7992 45.7168 21.8121 47.8724C21.8152 48.3964 21.6875 48.8058 21.1566 49.001C17.2815 49.001 13.4065 49.001 9.53134 49.001C9.09816 48.7357 8.97601 48.3344 8.98802 47.8489C9.00577 47.1311 8.98014 46.412 8.99802 45.6941C9.00639 45.3546 8.92801 45.0606 8.76298 44.7645C6.53216 40.7657 4.30997 36.7619 2.0824 32.7613C1.72485 32.1191 1.43631 31.4509 1.22978 30.7451C1.15402 30.4863 1.21166 30.1874 1 29.9693C1 24.3443 1 18.7192 1 13.0941ZM5.79168 19.3746C5.79106 19.3746 5.79056 19.3746 5.78993 19.3746C5.78993 17.5157 5.80243 15.6567 5.78506 13.7982C5.77506 12.7268 4.83105 12.0112 3.80253 12.2557C3.05854 12.4326 2.59848 13.0862 2.5981 13.989C2.5961 18.8313 2.60685 23.6737 2.59048 28.5162C2.5861 29.783 2.89064 30.9378 3.51023 32.0421C5.50714 35.6018 7.43329 39.202 9.47958 42.7327C10.2636 44.0854 10.8193 45.4208 10.5957 47.0006C10.5914 47.0312 10.5991 47.0636 10.5946 47.0941C10.5576 47.3421 10.6659 47.4094 10.909 47.4089C13.9082 47.4015 16.9074 47.401 19.9066 47.4098C20.1652 47.4105 20.2169 47.3208 20.2119 47.0857C20.1684 45.0095 20.3013 42.9302 20.1395 40.8564C19.8803 37.5335 18.3407 34.9429 15.5922 33.0721C15.111 32.7445 14.6737 32.384 14.2856 31.9483C12.7487 30.2218 11.1986 28.5072 9.65136 26.7898C9.45308 26.5695 9.2623 26.337 9.03652 26.148C8.1719 25.4239 6.88609 25.9093 6.69081 27.0187C6.59142 27.5839 6.83283 28.0119 7.19563 28.41C9.0579 30.4532 10.9178 32.4985 12.7717 34.5493C13.0396 34.8457 13.5474 35.1288 13.4942 35.4571C13.4429 35.7728 12.9368 36.0025 12.6607 36.2982C12.4473 36.5265 12.3365 36.4514 12.1586 36.2539C10.5905 34.5133 9.01002 32.7839 7.43679 31.0478C6.84983 30.4 6.2415 29.7682 5.69767 29.0854C4.88631 28.0665 4.85855 26.671 5.58615 25.5959C5.73355 25.3781 5.79743 25.1662 5.79618 24.9045C5.78743 23.0612 5.79168 21.2179 5.79168 19.3746Z" fill="#2179A1" stroke="#2179A1" stroke-width="0.3"/>
</svg>
