<svg width="110" height="110" viewBox="0 0 110 110" fill="none" xmlns="http://www.w3.org/2000/svg">
<path d="M71.546 25.2083V71.775C71.546 73.6083 70.996 75.3958 69.9877 76.9083L57.4752 95.5167C55.5043 98.4958 50.6002 100.604 46.4293 99.0458C41.9377 97.5333 38.9585 92.4917 39.921 88L42.3043 73.0125C42.4877 71.6375 42.121 70.4 41.3418 69.4375C40.5627 68.5667 39.4168 68.0167 38.1793 68.0167H19.3418C15.721 68.0167 12.6043 66.55 10.771 63.9833C9.02932 61.5083 8.70849 58.3 9.85432 55.0458L21.1293 20.7167C22.5502 15.0333 28.7377 10.4042 34.8793 10.4042H52.7543C55.8252 10.4042 60.1335 11.4583 62.1043 13.4292L67.971 17.9667C70.2168 19.7083 71.546 22.3667 71.546 25.2083Z" fill="#2179A1"/>
<path d="M86.1211 80.7125H90.8419C97.9461 80.7125 100.834 77.9625 100.834 71.1792V25.1167C100.834 18.3333 97.9461 15.5833 90.8419 15.5833H86.1211C79.0169 15.5833 76.1294 18.3333 76.1294 25.1167V71.225C76.1294 77.9625 79.0169 80.7125 86.1211 80.7125Z" fill="#2179A1"/>
</svg>
