<svg width="44" height="53" viewBox="0 0 44 53" fill="none" xmlns="http://www.w3.org/2000/svg">
<path fill-rule="evenodd" clip-rule="evenodd" d="M22.235 0.601264C26.6675 2.32743 30.9551 4.38607 35.3249 6.25705C37.0337 6.98923 38.7193 7.777 40.4351 8.48832C41.9342 9.10928 42.6918 10.2099 42.9108 11.7947C43.4889 15.9954 43.6859 20.2124 43.1877 24.4235C41.6666 37.2829 35.143 46.6331 23.4399 52.2947C23.0576 52.4789 22.6382 52.5901 22.235 52.7349C21.8284 52.7349 21.4206 52.7349 21.014 52.7349C19.3063 52.0097 17.6474 51.1872 16.0834 50.1874C8.10481 45.0877 3.02708 37.9397 0.954517 28.6856C-0.157644 23.7191 -0.195879 18.7005 0.319654 13.6634C0.394956 12.9219 0.511979 12.1863 0.616244 11.4472C0.813189 10.0477 1.59983 9.11738 2.88113 8.55666C8.22182 6.21765 13.5579 3.86938 18.8974 1.52805C19.6319 1.20599 20.3768 0.908259 21.1171 0.600098C21.489 0.601256 21.8632 0.601264 22.235 0.601264ZM41.7002 18.6588C41.706 16.8909 41.5194 14.4419 41.1835 12.0009C41.056 11.0695 40.6425 10.445 39.7585 10.0859C38.5827 9.60975 37.4323 9.07453 36.2714 8.56479C31.7348 6.57333 27.1981 4.58417 22.6649 2.58576C22.0937 2.33436 21.5492 2.25673 20.9537 2.51971C15.1195 5.08927 9.28183 7.64841 3.44645 10.211C2.8255 10.4833 2.45941 10.9467 2.34703 11.6267C2.16283 12.7319 2.0273 13.8406 1.93925 14.9574C1.61024 19.1164 1.63457 23.2627 2.46985 27.3696C4.67911 38.2375 10.847 46.0017 20.839 50.7632C21.4333 51.0459 22.001 51.054 22.5965 50.7794C29.31 47.67 34.4839 42.9167 37.9142 36.3375C40.6853 31.0223 41.7384 25.3063 41.7002 18.6588Z" fill="#2179A1"/>
<path fill-rule="evenodd" clip-rule="evenodd" d="M39.1103 19.1438C39.1196 25.1066 38.0688 30.6106 35.2826 35.7011C32.3285 41.0986 28.0432 45.1197 22.575 47.9059C21.9437 48.228 21.3482 48.1573 20.7353 47.8341C12.547 43.5291 7.36159 36.8909 5.24038 27.8812C4.31126 23.9319 4.18963 19.9247 4.48389 15.8954C4.54066 15.118 4.63564 14.343 4.70168 13.5656C4.76771 12.7941 5.17435 12.2983 5.87524 11.9912C10.1188 10.133 14.3589 8.26549 18.5991 6.40147C19.3567 6.06782 20.119 5.74111 20.8709 5.39587C21.4293 5.13984 21.9703 5.1306 22.5368 5.37968C27.5658 7.59358 32.5984 9.79936 37.6286 12.0109C38.3063 12.3087 38.6632 12.8253 38.7547 13.5714C38.9933 15.4945 39.0651 17.4258 39.1103 19.1438ZM6.08726 19.2782C6.06757 22.515 6.39425 25.7125 7.27818 28.8335C9.48281 36.6117 14.1863 42.3752 21.3146 46.1751C21.5648 46.3072 21.771 46.3767 22.063 46.2226C27.8983 43.1561 32.2057 38.6553 34.8552 32.601C36.3021 29.2923 37.0412 25.8075 37.2834 22.2173C37.4676 19.503 37.354 16.7909 37.076 14.0858C37.047 13.8043 36.9764 13.6062 36.6659 13.4718C31.799 11.3517 26.9391 9.21662 22.0804 7.07571C21.8267 6.96334 21.6262 6.97146 21.3725 7.08268C16.5613 9.20389 11.7477 11.3205 6.92602 13.4173C6.54255 13.5842 6.3989 13.7997 6.36183 14.197C6.20311 15.8873 6.11275 17.581 6.08726 19.2782Z" fill="#2179A1"/>
<path fill-rule="evenodd" clip-rule="evenodd" d="M29.5521 23.4525C29.5428 27.9486 26.3662 31.8111 21.9964 32.6301C21.1055 32.7981 20.2042 32.8051 19.3167 32.6336C19.0178 32.5757 18.8475 32.6533 18.6576 32.8514C17.8234 33.7215 17.0275 34.6193 16.4448 35.6874C16.1679 36.1948 15.7103 36.3547 15.2597 36.1288C14.7951 35.896 14.6491 35.3978 14.9225 34.8649C15.4925 33.7527 16.2919 32.8097 17.1527 31.9177C17.3635 31.6999 17.4029 31.5817 17.2002 31.3141C15.1183 28.5789 15.1195 24.9933 17.1863 22.2071C18.0876 20.9907 19.1383 19.9052 20.2238 18.8579C21.3603 17.7619 21.9859 16.4934 21.8434 14.8715C21.767 13.9852 22.5559 13.4326 23.4109 13.7246C25.2459 14.3525 26.6327 15.5562 27.6892 17.1549C28.8211 18.866 29.5567 21.3915 29.5521 23.4525ZM20.6282 30.9329C20.6699 30.9573 20.6942 30.9851 20.722 30.9874C20.7892 30.992 20.8575 30.9885 20.9247 30.9827C23.6646 30.7904 25.6537 29.4061 26.9026 27.0219C28.4585 24.0515 27.8943 21.1483 26.3662 18.347C25.8124 17.3345 25.0038 16.5374 24.0238 15.9211C23.7538 15.7508 23.5684 15.6303 23.5464 16.125C23.5279 16.5073 23.4097 16.8907 23.295 17.2603C22.9811 18.2867 22.3891 19.1429 21.6337 19.897C20.5656 20.9629 19.487 22.0206 18.5869 23.2393C17.053 25.3131 16.9882 28.0483 18.3946 30.0316C18.6135 30.341 18.7247 30.3954 19.0121 30.0837C21.2086 27.703 22.9382 25.0814 23.4758 21.8063C23.5603 21.2907 24.004 20.9965 24.4709 21.0787C24.9413 21.161 25.2297 21.5653 25.1857 22.0889C25.1788 22.1723 25.1614 22.2569 25.1463 22.3392C24.7084 24.845 23.5939 27.0473 22.1029 29.0747C21.6361 29.7096 21.1229 30.3108 20.6282 30.9329Z" fill="#2179A1"/>
</svg>
