<svg width="50" height="51" viewBox="0 0 50 51" fill="none" xmlns="http://www.w3.org/2000/svg">
<path fill-rule="evenodd" clip-rule="evenodd" d="M41.0302 16.0879C41.8893 16.0879 42.7072 16.0858 43.5254 16.0885C44.2745 16.091 44.5247 16.2832 44.6812 17.0101C46.166 23.9119 47.6481 30.8144 49.1294 37.717C49.4063 39.0066 49.6766 40.2979 49.9509 41.5879C50.1376 42.4666 49.7934 42.9037 48.8957 42.904C42.9183 42.9061 36.9409 42.9101 30.9634 42.8952C30.5088 42.8942 30.2722 42.9502 30.3522 43.479C30.4099 43.8593 30.2485 44.3492 30.4356 44.6111C30.6142 44.861 31.1282 44.6777 31.4942 44.6958C33.715 44.8053 35.5802 46.6374 35.7146 48.8535C35.7659 49.6982 35.4352 50.0552 34.584 50.0552C28.1969 50.057 21.8098 50.0568 15.4228 50.0553C14.5471 50.0552 14.2175 49.691 14.281 48.81C14.4471 46.5052 16.3896 44.7224 18.767 44.6926C19.6338 44.6818 19.6338 44.6818 19.6338 43.8262C19.6338 42.9051 19.6338 42.9051 18.7099 42.9051C12.9 42.9051 7.0902 42.9051 1.28036 42.9049C0.141849 42.9049 -0.161814 42.5452 0.074948 41.4374C1.80157 33.3523 3.53147 25.268 5.2639 17.1841C5.46669 16.2378 5.66516 16.0879 6.62279 16.0879C12.5258 16.0878 18.4287 16.0878 24.3317 16.0878C25.0415 16.0878 25.0415 16.0878 25.0056 15.3962C24.8089 11.6067 27.6085 8.10012 31.4731 7.29536C36.3389 6.28201 41.0801 10.1244 41.084 15.0878C41.0844 15.4032 41.0511 15.7185 41.0302 16.0879ZM8.54773 33.9659C10.11 33.9659 11.6721 33.9611 13.2344 33.9707C13.4901 33.9722 13.6409 33.9337 13.6817 33.6377C14.0628 30.8777 14.4485 28.1182 14.8528 25.3616C14.9063 24.997 14.7281 25.0253 14.4926 25.0254C11.5914 25.0282 8.69003 25.0321 5.78883 25.0201C5.47936 25.0189 5.38608 25.126 5.32529 25.4155C4.75715 28.1211 4.17947 30.8248 3.58168 33.524C3.49213 33.9282 3.61759 33.9765 3.97281 33.9729C5.49753 33.9564 7.02271 33.9659 8.54773 33.9659ZM41.4045 33.9659C42.9481 33.9659 44.4919 33.9535 46.0353 33.9746C46.4225 33.9798 46.4917 33.889 46.4082 33.5121C45.8183 30.8491 45.2392 28.1835 44.6897 25.5122C44.6076 25.1135 44.4723 25.0154 44.0817 25.018C41.2923 25.0358 38.5024 25.0451 35.7133 25.0125C35.1627 25.006 35.0989 25.1767 35.1699 25.6526C35.5608 28.2797 35.9332 30.9096 36.2959 33.541C36.3444 33.8939 36.4899 33.9786 36.8299 33.9743C38.3544 33.9552 39.8795 33.9659 41.4045 33.9659ZM33.053 16.0881C34.8954 16.0881 36.7385 16.0562 38.5796 16.1064C39.1777 16.1226 39.2844 15.91 39.3019 15.391C39.4332 11.5011 35.9424 8.40944 32.0916 9.02511C28.9559 9.5265 26.6868 12.2425 26.7845 15.3521C26.8008 15.8705 26.893 16.1259 27.5267 16.1073C29.3675 16.0532 31.2108 16.0881 33.053 16.0881ZM15.4392 33.9203C15.5168 33.9388 15.5697 33.9622 15.6227 33.9623C18.3377 33.9649 21.0528 33.9555 23.7677 33.9759C24.1797 33.979 24.1028 33.7482 24.103 33.5189C24.104 30.8411 24.0931 28.1632 24.1146 25.4855C24.1179 25.0689 23.9765 25.0157 23.6119 25.0189C21.6036 25.0364 19.5952 25.0274 17.5869 25.0274C16.7185 25.0274 16.7191 25.0275 16.5947 25.865C16.5455 26.1957 16.4899 26.5254 16.4427 26.8562C16.1074 29.2092 15.7738 31.5625 15.4392 33.9203ZM34.5616 33.9658C34.1489 31.0556 33.7384 28.1909 33.3421 25.3243C33.296 24.9911 33.0925 25.0262 32.8684 25.0263C30.6927 25.028 28.517 25.0357 26.3413 25.0187C25.9823 25.016 25.8801 25.1027 25.8825 25.4718C25.8993 28.1495 25.9019 30.8274 25.8807 33.5051C25.8774 33.9181 26.0123 33.9807 26.3809 33.9746C27.7194 33.9522 29.0586 33.9656 30.3975 33.9656C31.7714 33.9658 33.1454 33.9658 34.5616 33.9658ZM1.97322 41.0823C2.06396 41.0977 2.11835 41.115 2.17258 41.115C5.52197 41.1166 8.87151 41.1069 12.2209 41.1291C12.6529 41.1321 12.6408 40.881 12.6785 40.6185C12.8947 39.1099 13.0952 37.599 13.326 36.0928C13.3695 35.8083 13.3158 35.7481 13.0385 35.7489C9.83793 35.757 6.63724 35.7554 3.4367 35.7508C3.22974 35.7506 3.11054 35.772 3.05854 36.0221C2.70898 37.7088 2.33842 39.3913 1.97322 41.0823ZM48.0233 41.1171C47.6643 39.424 47.3142 37.8098 46.9849 36.1914C46.9135 35.84 46.769 35.7404 46.4002 35.7426C43.3113 35.7624 40.222 35.7538 37.1331 35.7538C36.9701 35.7538 36.8071 35.7538 36.6323 35.7538C36.8643 37.4083 37.1006 39.0075 37.3049 40.6109C37.3578 41.0271 37.5227 41.1367 37.9329 41.1276C39.2349 41.0987 40.5379 41.1171 41.8406 41.1171C43.8857 41.1171 45.9311 41.1171 48.0233 41.1171ZM19.2439 41.1169C20.7327 41.1169 22.2215 41.108 23.7102 41.1242C24.0233 41.1275 24.1143 41.0449 24.1109 40.7268C24.0942 39.2011 24.0949 37.675 24.1104 36.1489C24.1135 35.8386 24.0355 35.745 23.7151 35.7466C20.9982 35.7596 18.2811 35.7593 15.5642 35.7466C15.2641 35.7453 15.1583 35.8214 15.1184 36.1267C14.918 37.6564 14.7092 39.1853 14.4614 40.7075C14.399 41.0913 14.5075 41.1264 14.8335 41.1232C16.3035 41.1089 17.7737 41.1169 19.2439 41.1169ZM30.6963 41.1169C32.2037 41.1169 33.7111 41.1171 35.2186 41.1168C35.4167 41.1168 35.6063 41.1771 35.5492 40.817C35.3019 39.2566 35.0825 37.6918 34.8763 36.1257C34.8359 35.819 34.7296 35.7453 34.4307 35.7468C31.7136 35.7591 28.9965 35.7596 26.2794 35.7466C25.958 35.745 25.8816 35.8402 25.8849 36.1497C25.9004 37.6568 25.9048 39.1646 25.8825 40.6717C25.8771 41.0411 25.9817 41.1308 26.3417 41.1256C27.7928 41.1047 29.2447 41.1169 30.6963 41.1169ZM15.9212 17.8764C12.9942 17.8764 10.0935 17.878 7.19287 17.8729C6.97339 17.8726 6.92452 17.9722 6.88414 18.1662C6.55917 19.7295 6.22809 21.2918 5.87868 22.8497C5.80552 23.1759 5.87719 23.248 6.20693 23.2465C9.05418 23.234 11.9016 23.2316 14.7488 23.2493C15.0932 23.2514 15.1759 23.1407 15.2178 22.8278C15.4368 21.1907 15.6798 19.5572 15.9212 17.8764ZM44.1938 23.2392C43.8226 21.505 43.4538 19.8202 43.1083 18.1307C43.0527 17.8594 42.8996 17.8756 42.7108 17.8758C39.9382 17.8765 37.1653 17.8775 34.3927 17.8738C34.1762 17.8737 34.068 17.8819 34.1127 18.1709C34.3508 19.7137 34.5709 21.2596 34.7716 22.8077C34.8163 23.1517 34.9316 23.252 35.2815 23.2484C37.1236 23.2291 38.9661 23.2393 40.8083 23.2393C41.9209 23.2392 43.0335 23.2392 44.1938 23.2392ZM16.9639 23.2389C19.2753 23.2389 21.5588 23.2341 23.8421 23.2446C24.1463 23.2459 24.1039 23.0696 24.1039 22.8853C24.1033 21.3429 24.0934 19.8003 24.1115 18.2579C24.1153 17.9282 24.0042 17.8674 23.703 17.8695C21.8447 17.8825 19.9861 17.8834 18.1279 17.8686C17.8311 17.8662 17.7082 17.9403 17.6673 18.2438C17.445 19.8953 17.2045 21.5443 16.9639 23.2389ZM33.0314 23.239C32.7905 21.5433 32.5538 19.8931 32.3232 18.242C32.2891 17.9972 32.2311 17.8635 31.9209 17.8665C30.0255 17.8854 28.1297 17.8805 26.2341 17.8707C25.9767 17.8694 25.8831 17.926 25.8853 18.2043C25.8987 19.7652 25.9013 21.3265 25.8835 22.8874C25.8801 23.2022 25.9968 23.246 26.2668 23.244C27.6419 23.2329 29.0172 23.2389 30.3923 23.2389C31.2634 23.239 32.1346 23.239 33.0314 23.239ZM16.2219 48.2281C22.1052 48.2281 27.9079 48.2281 33.7709 48.2281C33.281 47.1538 32.5084 46.5097 31.3931 46.5006C27.1335 46.4662 22.8733 46.4665 18.6135 46.4996C17.4978 46.5084 16.72 47.147 16.2219 48.2281ZM24.9979 44.6923C25.7424 44.6923 26.487 44.6923 27.2315 44.6923C28.5888 44.6923 28.574 44.6923 28.5825 43.3519C28.5849 42.986 28.4872 42.8926 28.1243 42.8964C26.3377 42.9158 24.5507 42.9052 22.7636 42.9052C21.3865 42.9052 21.3977 42.9052 21.4137 44.3018C21.4172 44.6175 21.5004 44.7054 21.8148 44.6998C22.8756 44.6804 23.9368 44.6923 24.9979 44.6923Z" fill="#2179A1"/>
<path fill-rule="evenodd" clip-rule="evenodd" d="M48.0054 12.6682C47.9704 13.0752 47.7381 13.4051 47.2895 13.4951C46.1076 13.7326 44.9208 13.9466 43.7322 14.1482C43.2508 14.2298 42.8391 13.9228 42.7348 13.4635C42.6235 12.9741 42.8774 12.5114 43.39 12.4067C44.5891 12.1619 45.7929 11.9361 47.0015 11.7438C47.5486 11.6569 48.001 12.0921 48.0054 12.6682Z" fill="#2179A1"/>
<path fill-rule="evenodd" clip-rule="evenodd" d="M22.2353 14.4411C21.1544 14.2704 19.9413 14.0977 18.7366 13.8798C18.2002 13.7828 17.9363 13.3479 18.0275 12.862C18.1162 12.3885 18.4812 12.082 18.9957 12.149C20.1914 12.3052 21.3849 12.4849 22.5731 12.691C23.1123 12.7844 23.3889 13.2077 23.3193 13.6942C23.2533 14.1544 22.8739 14.4529 22.2353 14.4411Z" fill="#2179A1"/>
<path fill-rule="evenodd" clip-rule="evenodd" d="M42.1433 3.33133C42.5377 3.31926 42.799 3.47377 42.9726 3.76715C43.148 4.06352 43.1721 4.39728 42.9593 4.66071C42.1561 5.65604 41.347 6.64823 40.4971 7.60333C40.1758 7.96436 39.7163 7.94365 39.3422 7.62762C38.9666 7.31039 38.8792 6.86131 39.1759 6.48225C39.9523 5.48976 40.778 4.5357 41.5903 3.57181C41.7408 3.39316 41.9533 3.3203 42.1433 3.33133Z" fill="#2179A1"/>
<path fill-rule="evenodd" clip-rule="evenodd" d="M23.5478 3.57541C23.8869 3.58375 24.1164 3.72828 24.3075 3.94478C25.0567 4.79364 25.8118 5.63728 26.5509 6.49478C26.9451 6.95251 26.9182 7.48504 26.5174 7.8276C26.127 8.16166 25.6295 8.12619 25.2363 7.6929C24.4631 6.84076 23.7066 5.97328 22.9475 5.10848C22.6803 4.80422 22.5907 4.45496 22.7816 4.08008C22.9455 3.75883 23.2218 3.58912 23.5478 3.57541Z" fill="#2179A1"/>
<path fill-rule="evenodd" clip-rule="evenodd" d="M32.148 2.68511C32.1483 2.10938 32.1382 1.53349 32.1511 0.958046C32.1641 0.386181 32.5162 0.0117409 33.0222 0.00026779C33.5488 -0.0116523 33.9271 0.375304 33.9332 0.974734C33.9445 2.10744 33.9438 3.24044 33.9335 4.373C33.9281 4.97719 33.5597 5.3643 33.0335 5.35908C32.5077 5.35387 32.1599 4.96796 32.1497 4.35631C32.1404 3.79934 32.1479 3.24208 32.148 2.68511Z" fill="#2179A1"/>
</svg>
