<svg width="52" height="48" viewBox="0 0 52 48" fill="none" xmlns="http://www.w3.org/2000/svg">
<path fill-rule="evenodd" clip-rule="evenodd" d="M13.8024 19.5158C13.8654 20.3077 13.9445 21.0984 13.9886 21.8911C14.3026 27.5054 14.6067 33.1205 14.9194 38.7351C15.0533 41.1356 15.2082 43.5355 15.3305 45.9366C15.3485 46.2879 15.4637 46.3634 15.7892 46.3628C20.8606 46.3542 25.932 46.353 31.0032 46.3649C31.3627 46.3658 31.485 46.2541 31.5024 45.9058C31.5744 44.4651 31.6701 43.0253 31.7491 41.5848C31.9852 37.2813 32.2191 32.9778 32.4474 28.6737C32.4705 28.2386 32.4507 27.8012 32.355 27.341C31.896 28.2351 31.4438 29.1324 30.9768 30.022C30.5299 30.8734 30.0742 31.721 29.5156 32.5069C29.3664 32.7169 29.192 32.9106 29.0152 33.0989C28.7628 33.3666 28.4697 33.441 28.1093 33.3003C27.7338 33.1534 27.5567 32.9029 27.5433 32.5034C27.5087 31.4515 27.7826 30.4473 28.045 29.4499C29.0152 25.7676 30.2465 22.166 31.4625 18.5604C31.7077 17.8331 32.3696 17.6839 32.8771 18.2474C33.4149 18.8456 34.0534 19.0873 34.8515 19.0387C35.742 18.9845 36.0849 19.2809 36.1412 20.1498C36.2917 22.4754 36.4178 24.8025 36.5514 27.1293C36.8004 31.4687 37.0513 35.8083 37.295 40.1483C37.3989 41.995 37.5008 43.8426 37.5731 45.6911C37.5926 46.1967 37.7386 46.3735 38.2791 46.3661C40.7036 46.3341 43.1284 46.3518 45.5529 46.3524C45.8111 46.3524 46.0732 46.3293 46.2932 46.5144C46.5304 46.7137 46.6018 46.9699 46.5515 47.2625C46.4991 47.5651 46.316 47.7748 46.0146 47.8254C45.7246 47.874 45.4261 47.8882 45.1315 47.8885C31.583 47.8915 18.0348 47.8909 4.48664 47.8909C4.35693 47.8909 4.22663 47.8983 4.0981 47.8861C3.58252 47.837 3.27749 47.5269 3.31362 47.067C3.35212 46.5745 3.64915 46.3527 4.1295 46.3524C5.59184 46.3521 7.05449 46.3273 8.51565 46.3646C9.05433 46.3785 9.22017 46.2574 9.2486 45.6811C9.46774 41.2472 9.73575 36.8161 9.98273 32.384C10.1453 29.4658 10.2981 26.5471 10.4569 23.6289C10.4856 23.0976 10.5202 22.5666 10.5599 21.9116C9.86961 22.5646 9.25719 23.1409 8.64773 23.7207C6.79744 25.4813 4.93885 27.2323 2.94523 28.833C2.45422 29.2269 1.94723 29.6012 1.38012 29.8804C1.01823 30.0587 0.660196 30.1538 0.30068 29.8339C-0.0692005 29.5046 -0.052321 29.1368 0.108484 28.7264C0.394853 27.9958 0.835808 27.3549 1.28476 26.7221C3.5994 23.458 6.19568 20.4175 8.76145 17.354C9.31316 16.695 9.93357 16.7969 10.2359 17.5855C10.6043 18.5474 11.3388 18.9741 12.3089 19.095C12.7117 19.145 13.1257 19.0668 13.5207 19.2031C13.5613 19.2167 13.6016 19.2303 13.6422 19.2442C13.6347 19.1986 13.6274 19.153 13.6199 19.1077C13.5954 18.8178 13.6735 18.5693 13.8666 18.3413C14.365 17.7529 14.514 17.0839 14.349 16.3213C14.1746 15.5146 14.6203 15.0657 15.3935 15.2857C19.3547 16.4116 23.3298 17.4952 27.1856 18.9593C27.8069 19.1951 28.4172 19.4637 28.9761 19.8333C29.3442 20.0767 29.5692 20.3699 29.4526 20.8517C29.3409 21.3134 29.0175 21.4475 28.6035 21.5091C27.2839 21.7058 25.9788 21.4922 24.6808 21.3344C21.2687 20.9192 17.8832 20.3251 14.4995 19.7243C14.2569 19.681 14.0419 19.5863 13.819 19.501C13.8184 19.5019 13.8024 19.5158 13.8024 19.5158ZM3.78893 26.0395C3.83039 26.0075 3.87185 25.9752 3.91331 25.9432C3.95359 25.9092 3.99386 25.8754 4.03384 25.8414C6.14504 24.0719 8.07914 22.1121 10.0805 20.2247C10.2395 20.0749 10.2303 19.9878 10.0642 19.8347C9.27762 19.1098 9.28354 19.1036 8.61456 19.9182C8.55592 19.9896 8.49462 20.0589 8.43599 20.1303C6.91797 21.9898 5.35996 23.8178 3.94826 25.762C3.91983 25.8046 3.8914 25.847 3.86356 25.8902C3.8067 25.9281 3.76998 25.974 3.79574 26.0472C3.71253 26.0362 3.68676 26.0881 3.67581 26.1565C3.60473 26.1656 3.52389 26.1656 3.51323 26.2604C3.51115 26.2794 3.55587 26.3241 3.57482 26.322C3.66929 26.3107 3.66899 26.2296 3.67877 26.1588C3.71578 26.1189 3.75221 26.0792 3.78893 26.0395ZM12.3563 20.6399C12.1135 20.732 12.1552 20.881 12.1487 21.0009C12.0628 22.5524 11.9829 24.1042 11.8979 25.6554C11.743 28.4815 11.5869 31.3072 11.4288 34.1327C11.2076 38.085 10.9884 42.037 10.7539 45.9888C10.7352 46.3042 10.8341 46.3646 11.1152 46.3584C11.8182 46.3435 12.5233 46.3258 13.2246 46.3637C13.6821 46.3883 13.8293 46.2627 13.7982 45.7874C13.6362 43.3327 13.5003 40.8765 13.3638 38.4203C13.0878 33.4522 12.8192 28.4835 12.5435 23.5158C12.4905 22.5646 12.42 21.6142 12.3563 20.6399ZM34.7508 22.3244C34.4754 22.8287 34.304 23.1814 34.2817 23.6025C34.1565 25.9649 34.0185 28.326 33.8882 30.688C33.7629 32.9579 33.6462 35.2279 33.5174 37.4975C33.3572 40.32 33.1914 43.1428 33.0199 45.9648C33.0027 46.2452 33.0708 46.3657 33.3758 46.3589C34.1523 46.3424 34.9294 46.3403 35.7056 46.3601C36.0245 46.3681 36.1249 46.2663 36.1012 45.9485C36.0405 45.138 36.0079 44.325 35.9615 43.513C35.7133 39.1589 35.4645 34.8047 35.2158 30.4505C35.0644 27.7962 34.9122 25.1416 34.7508 22.3244ZM24.3527 19.745C24.3568 19.7018 24.3607 19.6585 24.3651 19.6156C24.1617 19.5407 23.9612 19.4557 23.7542 19.3929C21.4624 18.6943 19.1705 17.9957 16.8763 17.3048C16.0504 17.056 16.0853 17.0785 15.8114 17.8725C15.65 18.341 15.8318 18.4215 16.2162 18.4817C17.5459 18.6896 18.8708 18.9253 20.2005 19.1323C21.5829 19.3473 22.9685 19.5416 24.3527 19.745ZM29.9338 28.4086C30.2163 28.2505 30.2622 28.0621 30.338 27.9049C31.3716 25.7573 32.4057 23.6096 33.4274 21.4561C33.826 20.6159 33.799 20.6328 32.9995 20.2247C32.6553 20.0488 32.549 20.1078 32.4394 20.4549C31.9046 22.1452 31.3417 23.8264 30.8036 25.5153C30.5083 26.4425 30.2424 27.3786 29.9338 28.4086ZM29.9821 28.7116C29.9465 28.6837 29.9062 28.6417 29.8968 28.6473C29.8565 28.6731 29.8073 28.7077 29.7949 28.7489C29.7792 28.8004 29.8062 28.8682 29.8781 28.8407C29.9187 28.8253 29.9415 28.7646 29.9821 28.7116Z" fill="#2179A1"/>
<path fill-rule="evenodd" clip-rule="evenodd" d="M34.968 14.0292C34.9094 14.4364 34.6947 14.6902 34.3032 14.7639C33.458 14.9235 32.8844 15.3876 32.5133 16.175C32.2098 16.8188 31.5316 16.7821 31.0646 16.1205C29.6997 14.1864 28.3315 12.2547 26.9912 10.3034C25.819 8.59675 24.6552 6.88239 23.7194 5.02824C23.5527 4.69805 23.4141 4.35778 23.3184 3.99768C23.2154 3.61062 23.3152 3.31714 23.627 3.06749C23.932 2.82347 24.2367 2.84894 24.5563 3.0127C25.2407 3.36334 25.8039 3.87715 26.35 4.40102C29.3049 7.2351 31.9705 10.3384 34.6846 13.3966C34.8478 13.5808 34.9541 13.7923 34.968 14.0292ZM26.9787 7.54071C28.4005 9.59889 29.7935 11.6207 31.1925 13.6383C31.7268 14.4082 31.7238 14.3899 32.4698 13.8704C32.7378 13.6836 32.8207 13.5873 32.5592 13.3036C30.8819 11.4835 29.2261 9.64331 27.5571 7.81494C27.4315 7.67723 27.3371 7.45335 26.9787 7.54071Z" fill="#2179A1"/>
<path fill-rule="evenodd" clip-rule="evenodd" d="M48.6144 13.386C49.3551 13.3877 50.0957 13.3732 50.8293 13.4958C51.0292 13.5293 51.2303 13.5678 51.4228 13.6294C51.7488 13.7336 51.9463 13.9501 51.9899 14.3072C52.0325 14.6528 51.9407 14.9241 51.6466 15.1231C51.0724 15.5117 50.4256 15.7355 49.7718 15.9342C46.3564 16.9725 42.856 17.6516 39.3665 18.3765C38.7337 18.508 38.1008 18.641 37.4635 18.7485C36.8049 18.8595 36.3616 18.3931 36.5535 17.7579C36.8014 16.9373 36.7063 16.21 36.2135 15.4971C35.8359 14.9502 36.1318 14.3434 36.7812 14.277C40.7178 13.8755 44.6571 13.5068 48.6144 13.386ZM46.9039 15.1394C46.8983 15.1086 46.8933 15.0781 46.8876 15.0476C46.7076 15.0476 46.5266 15.0396 46.3469 15.0488C43.952 15.1732 41.563 15.3778 39.1746 15.5937C38.129 15.6882 38.1399 15.6624 38.222 16.6636C38.2465 16.9636 38.3146 17.0303 38.6185 16.963C40.1472 16.6237 41.6835 16.3178 43.2137 15.9837C44.4463 15.7145 45.6741 15.4216 46.9039 15.1394Z" fill="#2179A1"/>
<path fill-rule="evenodd" clip-rule="evenodd" d="M6.43945 1.48698C6.46078 1.19558 6.45959 0.953343 6.49986 0.718206C6.56117 0.360468 6.76728 0.139541 7.13627 0.0358916C7.49401 -0.0645004 7.74692 0.0530713 7.9782 0.296796C8.37829 0.718205 8.646 1.22579 8.90098 1.739C10.3328 4.62194 11.4096 7.65087 12.5497 10.6535C12.9235 11.6369 13.2842 12.6255 13.6375 13.6164C13.9259 14.4257 13.5004 14.9345 12.6463 14.7906C11.9142 14.6674 11.3 14.8794 10.7584 15.3594C10.0953 15.9467 9.52584 15.7841 9.30433 14.912C8.30544 10.976 7.28701 7.04408 6.61625 3.03403C6.528 2.5066 6.49335 1.97029 6.43945 1.48698ZM8.64245 5.16033C8.61313 5.23585 8.58322 5.27286 8.58974 5.30129C9.16988 7.77585 9.7512 10.2501 10.3358 12.7235C10.5354 13.5681 10.5357 13.5515 11.3752 13.3451C11.7306 13.2577 11.86 13.1742 11.6998 12.767C10.7744 10.4168 9.88417 8.05304 8.97294 5.69753C8.90453 5.52014 8.87818 5.30307 8.64245 5.16033Z" fill="#2179A1"/>
<path fill-rule="evenodd" clip-rule="evenodd" d="M12.2815 18.2699C11.5284 18.275 10.9059 17.6637 10.8985 16.9121C10.8911 16.1593 11.4946 15.5291 12.2433 15.5078C13.0023 15.4865 13.6692 16.141 13.6624 16.9006C13.6553 17.6486 13.0334 18.2652 12.2815 18.2699Z" fill="#2179A1"/>
<path fill-rule="evenodd" clip-rule="evenodd" d="M34.5787 18.2684C33.8129 18.2779 33.2102 17.6892 33.1975 16.9195C33.1847 16.1469 33.7604 15.53 34.5194 15.5039C35.2776 15.4779 35.9477 16.127 35.9477 16.8866C35.9477 17.635 35.3297 18.2589 34.5787 18.2684Z" fill="#2179A1"/>
<path fill-rule="evenodd" clip-rule="evenodd" d="M29.9825 28.7115C29.9416 28.7649 29.9188 28.8253 29.8786 28.8407C29.8066 28.8685 29.7796 28.8004 29.7953 28.7489C29.8078 28.7077 29.8569 28.6731 29.8972 28.6473C29.907 28.6414 29.947 28.6837 29.9825 28.7115Z" fill="#2179A1"/>
<path fill-rule="evenodd" clip-rule="evenodd" d="M3.67901 26.1589C3.66953 26.2296 3.66983 26.3108 3.57536 26.322C3.5564 26.3241 3.51139 26.2794 3.51376 26.2604C3.52442 26.166 3.60527 26.166 3.67634 26.1565L3.67901 26.1589Z" fill="#2179A1"/>
<path fill-rule="evenodd" clip-rule="evenodd" d="M13.6187 19.1083C13.6261 19.1539 13.6335 19.1995 13.641 19.2448C13.6004 19.2309 13.5601 19.2173 13.5195 19.2036C13.5524 19.1719 13.5856 19.14 13.6187 19.1083Z" fill="#2179A1"/>
<path fill-rule="evenodd" clip-rule="evenodd" d="M13.8027 19.5153L13.8181 19.5016L13.8027 19.5153Z" fill="#2179A1"/>
<path fill-rule="evenodd" clip-rule="evenodd" d="M3.86328 25.8893C3.89171 25.8467 3.92014 25.8043 3.94827 25.7617C3.9767 25.788 4.00543 25.8147 4.03415 25.8413C3.99417 25.8751 3.9539 25.9092 3.91362 25.9432C3.89674 25.9254 3.88016 25.9074 3.86328 25.8893Z" fill="#2179A1"/>
<path fill-rule="evenodd" clip-rule="evenodd" d="M3.91289 25.9432C3.87143 25.9752 3.82997 26.0075 3.78851 26.0395L3.79562 26.0469C3.76956 25.9738 3.80657 25.9279 3.86284 25.8896C3.87943 25.9074 3.89601 25.9255 3.91289 25.9432Z" fill="#2179A1"/>
<path fill-rule="evenodd" clip-rule="evenodd" d="M3.79027 26.0395C3.75355 26.0792 3.71712 26.1188 3.6804 26.1585L3.67773 26.1561C3.68869 26.0877 3.71446 26.0359 3.79767 26.0469L3.79027 26.0395Z" fill="#2179A1"/>
</svg>
