<svg width="110" height="110" viewBox="0 0 110 110" fill="none" xmlns="http://www.w3.org/2000/svg">
<path d="M38.4541 84.7458V38.1792C38.4541 36.3458 39.0041 34.5583 40.0124 33.0458L52.5249 14.4375C54.4958 11.4583 59.3999 9.34999 63.5708 10.9083C68.0624 12.4208 71.0416 17.4625 70.0791 21.9542L67.6958 36.9417C67.5124 38.3167 67.8791 39.5542 68.6583 40.5167C69.4374 41.3875 70.5833 41.9375 71.8208 41.9375H90.6583C94.2791 41.9375 97.3958 43.4042 99.2291 45.9708C100.971 48.4458 101.292 51.6541 100.146 54.9083L88.8708 89.2375C87.4499 94.9208 81.2624 99.55 75.1208 99.55H57.2458C54.1749 99.55 49.8666 98.4958 47.8958 96.525L42.0291 91.9875C39.7833 90.2916 38.4541 87.5875 38.4541 84.7458Z" fill="#206F6A"/>
<path d="M23.879 29.2417H19.1582C12.054 29.2417 9.1665 31.9917 9.1665 38.775V84.8833C9.1665 91.6667 12.054 94.4167 19.1582 94.4167H23.879C30.9832 94.4167 33.8707 91.6667 33.8707 84.8833V38.775C33.8707 31.9917 30.9832 29.2417 23.879 29.2417Z" fill="#206F6A"/>
</svg>
